<?xml version="1.0" encoding="utf-8"?>
<!-- Generator: Adobe Illustrator 21.1.0, SVG Export Plug-In . SVG Version: 6.00 Build 0)  -->
<svg version="1.1" id="Слой_1" xmlns="http://www.w3.org/2000/svg" xmlns:xlink="http://www.w3.org/1999/xlink" x="0px" y="0px"
	 viewBox="0 0 57.7 65.028" enable-background="new 0 0 57.7 65.028" xml:space="preserve">
<g>
	<path d="M49.286,38.731l-6.553,8.402c-0.252,0.336-0.252,0.756,0,1.092s0.588,0.588,0.924,0.924
		c1.092,0.924,2.52,1.344,3.865,1.344c0.252,0,0.504,0,0.756-0.084c1.68-0.168,3.193-1.008,4.201-2.352
		c1.008-1.344,1.512-2.941,1.344-4.621c-0.168-1.68-1.008-3.193-2.352-4.201c-0.336-0.252-0.756-0.504-1.176-0.756
		C49.958,38.311,49.538,38.479,49.286,38.731z M52.142,43.688c0.168,1.26-0.168,2.436-1.008,3.361
		c-0.756,1.008-1.848,1.596-3.109,1.68c-1.26,0.168-2.436-0.168-3.361-1.008c-0.084-0.084-0.168-0.084-0.168-0.168l5.713-7.225
		c0.084,0.084,0.168,0.168,0.252,0.168C51.386,41.336,52.058,42.428,52.142,43.688z"/>
	<path d="M49.622,50.115c-0.336-0.252-0.924-0.252-1.176,0.168c-0.252,0.336-0.252,0.924,0.168,1.176l0.504,0.42
		c0.168,0.084,0.336,0.168,0.504,0.168c0.252,0,0.504-0.084,0.672-0.336c0.252-0.336,0.252-0.924-0.168-1.176L49.622,50.115z"/>
	<path d="M47.353,51.123L47.353,51.123c-0.504,0-0.84,0.336-0.84,0.84v0.924c0,0.504,0.336,0.84,0.84,0.84l0,0
		c0.42,0,0.84-0.336,0.84-0.84v-0.924C48.193,51.543,47.857,51.123,47.353,51.123z"/>
	<path d="M49.034,49.023c0.084,0.42,0.42,0.672,0.84,0.672c0.084,0,0.168,0,0.168,0l0.84-0.168c0.42-0.084,0.756-0.588,0.588-1.008
		c-0.084-0.42-0.588-0.756-1.008-0.588l-0.84,0.168C49.202,48.183,48.95,48.603,49.034,49.023z"/>
	<path d="M48.698,28.145c-1.344-1.008-3.025-1.428-4.705-1.176c-1.68,0.252-3.109,1.176-4.117,2.52
		c-0.252,0.336-0.504,0.756-0.672,1.176c-0.168,0.336-0.084,0.756,0.252,1.008l8.654,6.301c0.168,0.084,0.336,0.168,0.504,0.168
		c0.168,0,0.42-0.084,0.588-0.252c0.336-0.252,0.588-0.588,0.84-0.924C52.142,34.11,51.554,30.161,48.698,28.145z M48.698,35.959
		c-0.084,0.084-0.084,0.168-0.168,0.168l-7.477-5.377c0.084-0.084,0.084-0.168,0.168-0.252c0.756-1.008,1.764-1.68,3.025-1.848
		c1.26-0.168,2.436,0.084,3.445,0.84C49.79,31.002,50.21,33.858,48.698,35.959z"/>
	<path d="M47.185,31.674c0.252-0.336,0.168-0.924-0.168-1.176c-0.336-0.252-0.924-0.168-1.176,0.168l-0.336,0.504
		c-0.252,0.336-0.168,0.924,0.168,1.176c0.168,0.084,0.336,0.168,0.504,0.168c0.252,0,0.504-0.084,0.672-0.336L47.185,31.674z"/>
	<path d="M47.353,32.514c-0.504,0-0.84,0.42-0.84,0.84c0,0.42,0.42,0.84,0.84,0.84l0,0h0.924c0.504,0,0.84-0.42,0.84-0.84
		c0-0.504-0.42-0.84-0.84-0.84H47.353z"/>
	<path d="M44.749,29.909c-0.168-0.42-0.588-0.672-1.008-0.588c-0.42,0.168-0.672,0.588-0.588,1.008l0.252,0.84
		c0.084,0.336,0.42,0.588,0.84,0.588c0.084,0,0.168,0,0.252,0c0.42-0.168,0.672-0.588,0.588-1.008L44.749,29.909z"/>
	<path d="M31.138,14.703c-0.084,0.252-0.084,0.588,0.084,0.84c0.084,0.084,5.545,7.645,5.377,16.299
		c-0.42,14.535,3.781,22.264,12.266,23.272l1.512,7.225l-4.705,1.008c-0.42,0.084-0.756,0.504-0.672,1.008
		c0.084,0.42,0.42,0.672,0.84,0.672c0.084,0,0.084,0,0.168,0l11.006-2.268c0.42-0.084,0.756-0.504,0.672-1.008
		c-0.084-0.42-0.504-0.756-1.008-0.672l-4.621,0.84l-1.512-7.141c7.561-4.285,8.318-13.106,2.1-26.297
		c-3.613-7.813-1.596-16.971-1.596-17.055c0.084-0.252,0-0.588-0.252-0.756c-0.168-0.168-0.504-0.252-0.756-0.252l-18.315,3.781
		C31.474,14.199,31.222,14.451,31.138,14.703z M51.134,29.153c5.881,12.602,5.293,20.5-1.68,24.28
		c-7.897-0.672-11.594-7.729-11.174-21.592c0.084-3.109-0.504-6.133-1.344-8.738l0.084-0.084c0.672-0.84,1.344-1.512,2.688-1.764
		s2.184,0.084,3.193,0.588c1.092,0.504,2.352,1.092,4.201,0.756c0.84-0.168,1.512-0.504,2.016-0.84
		C49.37,24.112,50.042,26.717,51.134,29.153z M49.202,12.266c-0.252,1.512-0.504,4.201-0.336,7.393
		c-0.588,0.588-1.092,1.008-2.184,1.26c-1.344,0.252-2.184-0.084-3.193-0.588c-1.092-0.504-2.352-1.092-4.201-0.756
		c-1.512,0.336-2.352,1.008-3.109,1.764c-1.008-2.604-2.184-4.621-2.941-5.797L49.202,12.266z"/>
	<path d="M34.037,0c-0.504,0-0.84,0.336-0.84,0.84v4.957c0,0.504,0.336,0.84,0.84,0.84s0.84-0.336,0.84-0.84V0.84
		C34.877,0.42,34.457,0,34.037,0z"/>
	<path d="M37.481,7.897c0.168,0,0.252,0,0.42-0.084l4.285-2.436c0.42-0.252,0.504-0.756,0.336-1.176
		c-0.168-0.42-0.756-0.504-1.176-0.336l-4.285,2.436c-0.42,0.252-0.504,0.756-0.336,1.176C36.893,7.729,37.229,7.897,37.481,7.897z"
		/>
	<path d="M1.145,53.35c-0.42-0.168-0.924,0.084-1.092,0.504c-0.168,0.42,0.084,0.924,0.504,1.092l10.586,3.697
		c0.084,0,0.168,0.084,0.252,0.084c0.336,0,0.672-0.252,0.756-0.588c0.168-0.42-0.084-0.924-0.504-1.092L7.11,55.45l2.52-7.141
		l4.117,1.428c0.252,0.084,0.588,0.168,0.84,0.168c0.924,0,1.68-0.504,2.016-1.26l14.703-37.387c0.084-0.252,0.084-0.588,0-0.84
		c-0.168-0.336-0.42-0.504-0.672-0.672L16.016,4.621c-0.336-0.084-0.672-0.084-0.924,0.084c-0.252,0.168-0.504,0.336-0.588,0.672
		L2.573,43.688c-0.336,1.092,0.336,2.268,1.512,2.688l4.117,1.428l-2.52,7.141L1.145,53.35z M16.016,6.469l13.61,4.789l-1.26,3.193
		c-0.672-0.756-1.596-1.596-3.109-2.1c-2.1-0.756-3.529-0.336-4.789-0.084c-1.176,0.336-2.184,0.588-3.781,0
		c-1.008-0.336-1.68-0.84-2.1-1.344L16.016,6.469z M4.169,44.192l9.914-31.506c0.504,0.42,1.176,0.84,2.1,1.176
		c2.1,0.756,3.529,0.336,4.789,0.084c1.176-0.336,2.184-0.588,3.781,0s2.184,1.344,2.941,2.352L15.175,48.057
		c-0.084,0.168-0.42,0.252-0.756,0.168l-9.83-3.445C4.253,44.696,4.085,44.36,4.169,44.192z"/>
	<path d="M16.688,23.608c-0.336,0.168-0.672,0.504-0.756,0.84c-0.168,0.42-0.084,0.84,0.084,1.176l1.344,2.773
		c0.252,0.588,0.84,0.84,1.344,0.84c0.252,0,0.42-0.084,0.672-0.168l2.773-1.344c0.336-0.168,0.672-0.504,0.756-0.84
		c0.168-0.42,0.084-0.84-0.084-1.176l-1.26-2.688c-0.336-0.756-1.26-1.092-2.016-0.756L16.688,23.608z M21.309,26.381l-2.52,1.176
		l-1.176-2.52l2.52-1.176L21.309,26.381z"/>
	<path d="M14.839,33.858c0.672,0,1.344-0.504,1.512-1.26l0.588-3.025c0.168-0.84-0.336-1.596-1.176-1.764l-3.025-0.588
		c-0.42-0.084-0.84,0-1.176,0.252c-0.336,0.252-0.588,0.588-0.672,1.008l-0.588,3.025c-0.168,0.84,0.336,1.596,1.176,1.764
		l3.025,0.588C14.671,33.774,14.755,33.858,14.839,33.858z M12.571,28.817l2.773,0.588l-0.588,2.773l-2.773-0.588L12.571,28.817z"/>
	<path d="M15.259,22.012h0.084l3.109-0.168c0.84-0.084,1.512-0.756,1.428-1.596l-0.168-3.109c0-0.42-0.168-0.756-0.504-1.092
		c-0.336-0.252-0.672-0.42-1.092-0.42l-3.109,0.168c-0.84,0.084-1.512,0.756-1.428,1.596l0.168,3.109
		C13.831,21.424,14.503,22.012,15.259,22.012z M18.116,17.391l0.168,2.773l-2.773,0.168l-0.168-2.773L18.116,17.391z"/>
</g>
</svg>
