<?xml version="1.0" encoding="utf-8"?>
<!-- Generator: Adobe Illustrator 21.1.0, SVG Export Plug-In . SVG Version: 6.00 Build 0)  -->
<svg version="1.1" id="Слой_1" xmlns="http://www.w3.org/2000/svg" xmlns:xlink="http://www.w3.org/1999/xlink" x="0px" y="0px"
	 viewBox="0 0 61.947 62.807" enable-background="new 0 0 61.947 62.807" xml:space="preserve">
<g>
	<path d="M60.891,60.7h-1.672C58.622,46.691,47.967,35.26,34.097,33.606c1.106-1.056,1.803-2.538,1.803-4.183
		c0-3.196-2.601-5.8-5.8-5.8s-5.8,2.601-5.8,5.8c0,1.727,0.774,3.265,1.977,4.328C12.851,35.839,2.814,47.028,2.238,60.7H1.053
		C0.471,60.7,0,61.172,0,61.753s0.474,1.053,1.053,1.053H3.23h0.008h54.986h0.008h2.662c0.582,0,1.053-0.471,1.053-1.053
		S61.473,60.7,60.891,60.7z M30.101,25.732c2.035,0,3.691,1.656,3.691,3.694s-1.656,3.694-3.691,3.694s-3.691-1.656-3.691-3.694
		S28.065,25.732,30.101,25.732z M28.239,35.599l3.728-0.084c13.69,0.632,24.524,11.6,25.146,25.188H4.347
		C4.944,47.505,15.057,36.797,28.239,35.599z"/>
	<path d="M23.59,40.233c-4.26,1.369-7.682,3.488-10.173,6.3c-2.406,2.722-4.023,6.182-4.805,10.286
		c-0.111,0.571,0.266,1.122,0.835,1.232c0.066,0.013,0.134,0.018,0.197,0.018c0.495,0,0.937-0.35,1.035-0.856
		c0.713-3.728,2.162-6.851,4.318-9.283c2.235-2.522,5.345-4.439,9.238-5.689c0.556-0.179,0.858-0.771,0.682-1.324
		C24.735,40.359,24.135,40.049,23.59,40.233z"/>
	<path d="M32.607,0.802c-0.134-0.558-0.7-0.906-1.253-0.774c-0.563,0.126-0.919,0.69-0.8,1.253c0.008,0.032,0.608,3.122-2.509,9.325
		c-2.975,5.924,1.069,10.944,1.243,11.155c0.208,0.253,0.508,0.384,0.816,0.384c0.234,0,0.474-0.079,0.669-0.24
		c0.448-0.371,0.511-1.035,0.145-1.482c-0.14-0.168-3.352-4.16-0.987-8.87C33.444,4.551,32.644,0.952,32.607,0.802z"/>
	<path d="M41.258,1.968c-0.132-0.561-0.682-0.903-1.253-0.777c-0.561,0.126-0.916,0.687-0.798,1.251
		c0.008,0.032,0.606,3.125-2.509,9.328c-3.02,6.019,1.214,11.118,1.258,11.171c0.208,0.245,0.5,0.371,0.8,0.371
		c0.24,0,0.482-0.082,0.679-0.247c0.445-0.374,0.5-1.037,0.132-1.482c-0.14-0.166-3.362-4.126-0.985-8.865
		C42.096,5.717,41.295,2.118,41.258,1.968z"/>
	<path d="M24.793,4.301c-0.132-0.561-0.7-0.903-1.253-0.777c-0.561,0.126-0.916,0.687-0.798,1.253
		c0.008,0.029,0.606,3.122-2.506,9.325c-3.022,6.016,1.211,11.118,1.256,11.168c0.208,0.245,0.5,0.371,0.8,0.371
		c0.24,0,0.482-0.082,0.679-0.247c0.445-0.374,0.5-1.037,0.132-1.482c-0.142-0.166-3.367-4.126-0.985-8.865
		C25.63,8.05,24.83,4.451,24.793,4.301z"/>
</g>
</svg>
