<?xml version="1.0" encoding="utf-8"?>
<!-- Generator: Adobe Illustrator 21.1.0, SVG Export Plug-In . SVG Version: 6.00 Build 0)  -->
<svg version="1.1" id="Слой_1" xmlns="http://www.w3.org/2000/svg" xmlns:xlink="http://www.w3.org/1999/xlink" x="0px" y="0px"
	 viewBox="0 0 45.841 87.623" enable-background="new 0 0 45.841 87.623" xml:space="preserve">
<g>
	<path d="M44.166,67.16c2.412-3.031,2.22-7.469-0.583-10.271c-2.992-2.99-7.838-3.009-10.855-0.066
		c-0.024,0.02-0.051,0.037-0.072,0.059c-2.232,2.232-5.861,2.232-8.094,0c-1.08-1.081-1.676-2.518-1.676-4.045
		c0-1.529,0.595-2.965,1.677-4.048c0.007-0.006,0.011-0.014,0.018-0.021l6.411-6.411c3.013-3.013,3.014-7.915,0.002-10.929
		c-1.459-1.46-3.401-2.263-5.466-2.263c-1.976,0-3.833,0.744-5.268,2.086l-0.204-0.202c-0.391-0.393-1.027-0.393-1.418,0
		c-0.391,0.391-0.391,1.025,0,1.418l0.12,0.119l-3.188,3.187c-0.422-0.446-0.919-0.827-1.475-1.118v-8.04h4.582
		c1.982,0,3.597-1.614,3.597-3.598c0-1.983-1.614-3.598-3.597-3.598h-3.265c-0.055-0.009-0.111-0.017-0.17-0.017h-0.476
		c-0.289-0.685-0.703-2.016-0.429-3.585h0.057c0.235,0,0.449-0.085,0.621-0.22c0.94-0.405,1.601-1.341,1.601-2.428
		c0-1.457-1.186-2.643-2.643-2.643H8.97c-1.457,0-2.642,1.186-2.642,2.643c0,1.333,0.991,2.438,2.274,2.617
		c0.286,1.583-0.134,2.928-0.424,3.616H8.151c-0.058,0-0.114,0.008-0.169,0.017H4.267c-1.984,0-3.598,1.615-3.598,3.598
		c0,1.984,1.614,3.598,3.598,3.598h4.581v8.04c-1.841,0.967-3.036,2.899-3.036,5.01c0,2.11,1.195,4.042,3.036,5.011v9.268
		c-1.841,0.966-3.036,2.9-3.036,5.01c0,0.631,0.109,1.257,0.318,1.853C2.375,62.777,0,66.658,0,70.959
		c0,3.927,1.984,7.398,5.002,9.468H4.269c-1.983,0-3.597,1.615-3.597,3.598s1.614,3.599,3.597,3.599h14.412
		c1.984,0,3.599-1.616,3.599-3.599s-1.614-3.598-3.599-3.598h-0.738c3.018-2.07,5.003-5.541,5.003-9.468
		c0-4.301-2.376-8.183-6.13-10.156c0.207-0.593,0.317-1.22,0.317-1.851c0-2.11-1.195-4.044-3.037-5.01v-9.27
		c1.842-0.967,3.037-2.899,3.037-5.011c0-0.76-0.158-1.496-0.442-2.175l3.486-3.486l0.085,0.085
		c0.194,0.194,0.451,0.293,0.707,0.293c0.257,0,0.514-0.098,0.71-0.293c0.392-0.392,0.392-1.027,0-1.418h-0.001
		c1.056-0.964,2.411-1.499,3.851-1.499c1.529,0,2.965,0.595,4.047,1.675c2.232,2.232,2.232,5.861,0,8.094l-6.434,6.433
		c-0.014,0.015-0.023,0.03-0.036,0.043c-1.432,1.455-2.224,3.377-2.224,5.421c0,2.064,0.804,4.007,2.262,5.466
		c1.507,1.507,3.486,2.259,5.465,2.259c1.949,0,3.894-0.734,5.392-2.193c0.024-0.021,0.051-0.037,0.073-0.059
		c2.231-2.232,5.861-2.232,8.092,0c2.019,2.019,2.204,5.183,0.567,7.419l-0.138-0.138c-0.392-0.391-1.028-0.391-1.418,0
		c-0.391,0.392-0.391,1.027,0,1.417l0.19,0.192l-2.644,2.643c-0.393,0.394-0.393,1.028,0,1.419c0.196,0.194,0.452,0.292,0.71,0.292
		c0.255,0,0.511-0.098,0.707-0.292l2.645-2.645l0.014,0.013c0.195,0.197,0.451,0.294,0.707,0.294c0.258,0,0.513-0.097,0.71-0.294
		c0.392-0.392,0.392-1.025,0-1.417L44.166,67.16z M10.852,34.222v-7.602h1.238v7.602H10.852z M8.969,12.529h5.003
		c0.352,0,0.639,0.287,0.639,0.639c0,0.351-0.287,0.638-0.639,0.638H8.969c-0.352,0-0.638-0.287-0.638-0.638
		C8.332,12.816,8.617,12.529,8.969,12.529z M10.635,15.815h1.673c-0.188,1.427,0.039,2.675,0.324,3.585h-2.319
		C10.596,18.49,10.823,17.243,10.635,15.815z M2.673,23.015c0-0.877,0.715-1.592,1.592-1.592h14.412
		c0.878,0,1.592,0.716,1.592,1.592s-0.714,1.592-1.592,1.592H4.265C3.387,24.607,2.673,23.893,2.673,23.015z M12.09,45.095v8.297
		h-1.238v-8.297H12.09z M18.68,82.431c0.877,0,1.592,0.715,1.592,1.592c0,0.877-0.715,1.592-1.592,1.592H4.269
		c-0.877,0-1.592-0.715-1.592-1.592c0-0.877,0.715-1.592,1.592-1.592H18.68z M20.94,70.958c0,5.221-4.249,9.468-9.469,9.468
		c-5.221,0-9.468-4.246-9.468-9.468c0-3.711,2.146-7.038,5.493-8.587h7.951C18.794,63.92,20.94,67.247,20.94,70.958z M15.126,58.951
		c0,0.483-0.101,0.964-0.292,1.413H8.108c-0.191-0.449-0.292-0.93-0.292-1.413c0-1.516,0.958-2.892,2.383-3.422
		c0.087-0.033,0.166-0.078,0.24-0.13h2.066c0.072,0.052,0.151,0.097,0.239,0.13C14.168,56.058,15.126,57.434,15.126,58.951z
		 M12.743,43.084c-0.004,0.001-0.007,0.004-0.011,0.005H10.21c-0.004-0.001-0.007-0.004-0.011-0.005
		c-1.425-0.531-2.383-1.905-2.383-3.422c0-1.517,0.958-2.891,2.383-3.421c0.011-0.005,0.019-0.009,0.03-0.014h2.484
		c0.01,0.005,0.02,0.011,0.031,0.014c1.426,0.529,2.383,1.904,2.383,3.421C15.126,41.179,14.168,42.555,12.743,43.084z"/>
	<path d="M12.573,75.018c-2.979,0-5.402-2.424-5.402-5.403c0-0.553-0.449-1.002-1.002-1.002s-1.002,0.45-1.002,1.002
		c0,4.086,3.323,7.408,7.408,7.408c0.554,0,1.002-0.449,1.002-1.002C13.577,75.466,13.127,75.018,12.573,75.018z"/>
	<path d="M9.305,3.946c-0.494,0.851-1.17,2.015-0.154,3.699c0.151,0.25,0.416,0.387,0.688,0.387c0.141,0,0.284-0.037,0.414-0.115
		c0.378-0.23,0.5-0.722,0.271-1.102c-0.526-0.869-0.294-1.269,0.167-2.064c0.067-0.114,0.134-0.231,0.2-0.349
		c0.871-1.589,0.401-2.659-0.356-3.995c-0.219-0.386-0.708-0.521-1.094-0.302C9.056,0.322,8.921,0.812,9.14,1.199
		c0.68,1.2,0.803,1.596,0.345,2.432C9.426,3.737,9.366,3.842,9.305,3.946z"/>
	<path d="M12.458,4.914c-0.34,0.588-0.856,1.476-0.099,2.731c0.151,0.25,0.415,0.387,0.688,0.387c0.141,0,0.284-0.037,0.414-0.115
		c0.38-0.23,0.501-0.722,0.273-1.101c-0.267-0.442-0.179-0.594,0.113-1.097c0.045-0.078,0.091-0.157,0.136-0.238
		c0.696-1.266,0.199-2.143-0.237-2.915c-0.218-0.386-0.708-0.521-1.093-0.304c-0.388,0.219-0.524,0.709-0.305,1.095
		c0.437,0.773,0.462,0.924,0.227,1.353C12.538,4.779,12.498,4.847,12.458,4.914z"/>
</g>
</svg>
