<?xml version="1.0" encoding="utf-8"?>
<!-- Generator: Adobe Illustrator 21.1.0, SVG Export Plug-In . SVG Version: 6.00 Build 0)  -->
<svg version="1.1" id="Слой_1" xmlns="http://www.w3.org/2000/svg" xmlns:xlink="http://www.w3.org/1999/xlink" x="0px" y="0px"
	 viewBox="0 0 331.893 326.559" enable-background="new 0 0 331.893 326.559" xml:space="preserve">
<g>
	<path fill="#0E0F0F" d="M52.152,148.931c-0.687,0-1.343-0.328-1.755-0.877l-29.859-39.812c-0.635-0.847-1.632-1.343-2.685-1.343
		c-0.045,0-0.901,0.034-0.901,0.034c-4.848,0.196-9.862,0.399-14.757,0.399c-1.21,0-2.194-0.985-2.194-2.194
		s0.984-2.194,2.194-2.194c55.795-0.087,112.051-12.511,162.69-35.93c0.365-0.166,0.667-0.232,0.977-0.232
		c0.863,0,1.649,0.508,2.004,1.293c0.497,1.103,0.005,2.405-1.099,2.903c-5.427,2.52-10.906,4.806-16.022,6.903
		c-1.121,0.459-1.907,1.487-2.057,2.688l-5.551,44.213c-0.096,0.792-0.6,1.465-1.318,1.772c-0.272,0.116-0.554,0.175-0.843,0.175
		c-0.48,0-0.947-0.156-1.323-0.438l-40.236-30.17c-0.586-0.44-1.294-0.671-2.013-0.671c-0.271,0-0.544,0.032-0.812,0.099
		c-6.473,1.613-13.091,3.081-19.67,4.364c-1.074,0.21-1.98,0.93-2.424,1.931l-20.35,45.783c-0.316,0.711-0.988,1.204-1.757,1.292
		C52.323,148.926,52.237,148.931,52.152,148.931z M64.33,102.303c-0.177,0-0.355,0.014-0.533,0.043
		c-10.329,1.66-21.092,2.895-32.905,3.775c-1.222,0.091-2.299,0.842-2.807,1.958c-0.507,1.117-0.365,2.422,0.371,3.403
		l19.777,26.373c0.637,0.851,1.636,1.343,2.685,1.343c0.125,0,0.251-0.007,0.377-0.021c1.183-0.134,2.206-0.885,2.691-1.973
		l13.411-30.18c0.5-1.125,0.343-2.434-0.408-3.41C66.35,102.779,65.362,102.303,64.33,102.303z M140.245,82.192
		c-0.393,0-0.788,0.069-1.167,0.209c-10.352,3.838-19.802,6.972-28.891,9.579c-1.225,0.351-2.144,1.366-2.375,2.619
		c-0.23,1.254,0.268,2.529,1.288,3.294l25.534,19.145c0.59,0.443,1.299,0.671,2.013,0.671c0.444,0,0.89-0.088,1.313-0.267
		c1.101-0.467,1.87-1.486,2.018-2.673l3.598-28.803c0.146-1.164-0.327-2.319-1.245-3.047
		C141.727,82.44,140.991,82.192,140.245,82.192z"/>
	<path fill="#0E0F0F" d="M35.498,326.558c-0.586,0-1.137-0.228-1.551-0.642L0.643,292.611c-0.408-0.407-0.642-0.973-0.642-1.55
		c-0.001-0.587,0.228-1.138,0.642-1.553c0.414-0.414,0.964-0.642,1.551-0.642H33.2c0.89,0,1.744-0.354,2.374-0.983l29.487-29.488
		c1.137-1.137,1.308-2.92,0.407-4.252c-6.883-10.188-5.569-23.893,3.124-32.588l50.171-50.165l36.406,36.406l-50.164,50.149
		c-4.859,4.866-11.323,7.545-18.201,7.545l0,0c-5.145,0-10.12-1.524-14.388-4.41c-0.571-0.386-1.227-0.576-1.878-0.576
		c-0.866,0-1.727,0.334-2.375,0.984l-29.486,29.497c-0.629,0.629-0.983,1.483-0.983,2.373v31.008c0,0.576-0.234,1.141-0.641,1.547
		C36.636,326.33,36.084,326.558,35.498,326.558z M15.593,293.254c-1.358,0-2.581,0.819-3.102,2.072
		c-0.519,1.255-0.232,2.698,0.727,3.659l14.355,14.355c0.643,0.642,1.501,0.983,2.375,0.983c0.433,0,0.868-0.084,1.284-0.256
		c1.254-0.52,2.072-1.744,2.072-3.102v-14.355c0-1.854-1.503-3.357-3.357-3.357H15.593z M68.943,237.745
		c-0.932,0-1.821,0.387-2.456,1.07s-0.959,1.597-0.892,2.527c0.364,5.118,2.567,9.934,6.201,13.558
		c4.019,4.007,9.356,6.214,15.03,6.214c5.698,0,11.051-2.221,15.073-6.255l11.382-11.382c0.961-0.961,1.248-2.404,0.729-3.659
		c-0.52-1.254-1.744-2.072-3.102-2.072H68.943z M118.763,178.983c-0.859,0-1.718,0.328-2.373,0.983L71.699,224.65
		c-1.071,1.086-2.018,2.271-2.83,3.539c-0.661,1.033-0.708,2.345-0.119,3.422c0.589,1.077,1.718,1.746,2.945,1.746h50.319
		c0.89,0,1.744-0.354,2.374-0.983l22.204-22.204c1.31-1.311,1.31-3.437,0-4.747l-25.456-25.457
		C120.481,179.311,119.622,178.983,118.763,178.983z"/>
	<path fill="#0E0F0F" d="M296.393,326.558c-1.211,0-2.195-0.983-2.195-2.193v-31.008c0-0.89-0.354-1.744-0.984-2.374l-29.498-29.497
		c-0.649-0.649-1.508-0.983-2.374-0.983c-0.651,0-1.307,0.19-1.878,0.576c-4.27,2.885-9.245,4.411-14.39,4.411
		c-6.881,0-13.344-2.679-18.202-7.542l-50.151-50.151l36.408-36.407l50.154,50.159c8.699,8.695,10.015,22.404,3.129,32.594
		c-0.901,1.332-0.73,3.117,0.408,4.253l29.497,29.487c0.629,0.629,1.483,0.983,2.373,0.983h31.008c0.892,0,1.687,0.531,2.028,1.354
		c0.34,0.821,0.153,1.76-0.478,2.39l-33.307,33.305C297.534,326.324,296.969,326.558,296.393,326.558z M301.943,293.254
		c-1.854,0-3.357,1.503-3.357,3.357v14.355c0,1.358,0.819,2.581,2.072,3.102c0.415,0.171,0.851,0.256,1.284,0.256
		c0.874,0,1.732-0.341,2.375-0.984l14.354-14.355c0.96-0.96,1.247-2.403,0.727-3.658c-0.52-1.254-1.744-2.072-3.102-2.072H301.943z
		 M229.982,254.854c4.029,4.033,9.387,6.253,15.086,6.253c1.69,0,3.379-0.202,5.022-0.6c11.427-2.769,18.472-14.318,15.703-25.746
		c-0.364-1.507-1.713-2.567-3.262-2.567h-47.105c-1.358,0-2.582,0.819-3.102,2.072c-0.519,1.255-0.232,2.699,0.729,3.659
		l16.816,16.81C229.906,254.776,229.943,254.815,229.982,254.854z M213.128,178.983c-0.89,0-1.744,0.354-2.373,0.983l-25.457,25.457
		c-1.311,1.311-1.311,3.437,0,4.748l16.652,16.652c0.63,0.63,1.484,0.984,2.374,0.984h50.912c1.358,0,2.581-0.819,3.102-2.072
		c0.519-1.255,0.232-2.698-0.727-3.658l-42.108-42.109C214.872,179.336,214.019,178.983,213.128,178.983z"/>
	<path fill="#0E0F0F" d="M285.3,98.991c-0.768,0-1.468-0.389-1.871-1.04l-26.127-41.809c-0.614-0.981-1.69-1.577-2.847-1.577H253.9
		c-4.656,0-9.585-0.13-15.508-0.408c-0.052-0.002-0.105-0.003-0.157-0.003c-0.977,0-1.909,0.426-2.549,1.172l-31.995,37.33
		c-0.416,0.486-1.023,0.766-1.664,0.766c-0.145,0-0.28-0.012-0.412-0.035c-0.751-0.132-1.391-0.665-1.663-1.389l-16.303-43.487
		c-0.397-1.059-1.301-1.847-2.404-2.096c-9.224-2.082-18.467-4.596-27.472-7.472c-0.334-0.107-0.679-0.159-1.021-0.159
		c-0.717,0-1.426,0.23-2.015,0.671l-41.759,31.324c-0.377,0.283-0.844,0.439-1.316,0.439c-1.21,0-2.194-0.985-2.194-2.194V21.18
		c0-1.258-0.704-2.411-1.823-2.985c-8.781-4.513-17.16-9.27-24.905-14.139c-1.026-0.645-1.337-2.003-0.693-3.028
		C78.452,0.385,79.148,0,79.911,0c0.409,0,0.812,0.117,1.162,0.337c51.792,32.606,111.519,49.841,172.722,49.84h70.351
		c1.21,0,2.194,0.985,2.194,2.194c0,1.21-0.984,2.194-2.194,2.194h-8.027c-1.158,0-2.234,0.596-2.847,1.579l-26.107,41.798
		c-0.184,0.297-0.429,0.542-0.715,0.719C286.098,98.88,285.711,98.991,285.3,98.991z M267.527,54.565
		c-1.221,0-2.345,0.663-2.936,1.73c-0.592,1.068-0.556,2.372,0.09,3.407l17.763,28.382c0.614,0.98,1.69,1.576,2.846,1.576
		s2.232-0.596,2.846-1.576l17.763-28.382c0.646-1.035,0.682-2.339,0.09-3.407c-0.591-1.067-1.715-1.73-2.936-1.73H267.527z
		 M193.372,49.014c-0.983,0-1.929,0.432-2.573,1.201c-0.777,0.928-0.995,2.202-0.57,3.335l10.552,28.11
		c0.417,1.111,1.39,1.919,2.558,2.126c0.195,0.034,0.391,0.051,0.585,0.051c0.969,0.001,1.904-0.42,2.548-1.17l20.5-23.886
		c0.819-0.955,1.036-2.288,0.561-3.453s-1.561-1.967-2.815-2.077c-10.288-0.904-20.629-2.311-30.736-4.181
		C193.779,49.032,193.574,49.014,193.372,49.014z M113.212,23.269c-0.629,0-1.255,0.176-1.803,0.525
		c-0.968,0.616-1.554,1.684-1.554,2.832v31.296c0,1.272,0.719,2.434,1.856,3.002c0.475,0.238,0.989,0.354,1.501,0.354
		c0.714,0,1.421-0.227,2.015-0.671l26.815-20.111c0.985-0.739,1.486-1.958,1.306-3.177c-0.18-1.219-1.013-2.241-2.171-2.662
		c-8.583-3.128-17.513-6.854-26.544-11.073C114.181,23.373,113.695,23.269,113.212,23.269z"/>
	<path fill="#0E0F0F" d="M163.17,161.143c-1.21,0-2.194-0.985-2.194-2.194v-16.653c0-1.21,0.984-2.194,2.194-2.194
		c1.21,0,2.194,0.985,2.194,2.194v16.653C165.364,160.158,164.38,161.143,163.17,161.143z"/>
	<path fill="#0E0F0F" d="M146.51,165.583c-0.781,0-1.508-0.42-1.899-1.096l-8.326-14.432c-0.624-1.097-0.256-2.439,0.797-3.037
		c0.335-0.191,0.698-0.288,1.079-0.288c0.791,0,1.524,0.426,1.914,1.111l8.337,14.45c0.192,0.333,0.294,0.712,0.294,1.096
		c0.001,1.209-0.982,2.194-2.191,2.195H146.51z"/>
	<path fill="#0E0F0F" d="M138.168,257.76c-0.392,0-0.763-0.102-1.106-0.302c-0.505-0.296-0.865-0.771-1.013-1.338
		c-0.148-0.568-0.066-1.159,0.23-1.664l8.338-14.452c0.387-0.66,1.096-1.066,1.885-1.066c0.382,0,0.745,0.097,1.08,0.288
		c0.51,0.29,0.877,0.761,1.032,1.325c0.156,0.565,0.082,1.156-0.208,1.666c0,0-8.369,14.509-8.378,14.524
		C139.667,257.356,138.958,257.76,138.168,257.76L138.168,257.76z"/>
	<path fill="#0E0F0F" d="M163.17,264.389c-1.21,0-2.194-0.984-2.194-2.194v-16.653c0-1.21,0.984-2.194,2.194-2.194
		c1.21,0,2.194,0.984,2.194,2.194v16.653C165.364,263.405,164.38,264.389,163.17,264.389z"/>
	<path fill="#0E0F0F" d="M188.135,257.697c-0.79,0-1.5-0.406-1.898-1.085l-8.315-14.413c-0.624-1.097-0.256-2.44,0.797-3.038
		c0.335-0.191,0.698-0.287,1.079-0.287c0.79,0,1.523,0.426,1.912,1.11l8.338,14.452c0.579,1.019,0.221,2.355-0.81,2.958
		C188.897,257.595,188.526,257.697,188.135,257.697L188.135,257.697z"/>
	<path fill="#0E0F0F" d="M179.798,165.616c-0.392,0-0.764-0.102-1.107-0.302c-1.042-0.612-1.392-1.959-0.781-3.003
		c0,0,8.381-14.528,8.4-14.566c0.361-0.611,1.071-1.016,1.861-1.016c0.391,0,0.763,0.102,1.106,0.302
		c0.505,0.297,0.865,0.771,1.013,1.339c0.147,0.567,0.066,1.158-0.231,1.664c0,0-8.381,14.527-8.4,14.565
		C181.298,165.211,180.588,165.616,179.798,165.616L179.798,165.616z"/>
	<path fill="#0E0F0F" d="M235.332,315.457c-7.332,0-13.296-5.964-13.296-13.296s5.964-13.296,13.296-13.296
		s13.296,5.964,13.296,13.296S242.664,315.457,235.332,315.457z M235.332,293.254c-4.911,0-8.908,3.997-8.908,8.908
		c0,4.911,3.997,8.908,8.908,8.908s8.908-3.997,8.908-8.908C244.24,297.25,240.243,293.254,235.332,293.254z"/>
	<path fill="#0E0F0F" d="M52.152,193.337c-7.332,0-13.296-5.964-13.296-13.296s5.964-13.296,13.296-13.296
		s13.296,5.964,13.296,13.296S59.484,193.337,52.152,193.337z M52.152,171.134c-4.911,0-8.908,3.997-8.908,8.908
		s3.997,8.908,8.908,8.908s8.908-3.997,8.908-8.908S57.063,171.134,52.152,171.134z"/>
	<path fill="#0E0F0F" d="M240.87,132.273c-1.641,0-3.211-0.512-4.545-1.48c-1.673-1.217-2.773-3.011-3.097-5.055
		c-0.324-2.043,0.169-4.09,1.384-5.764c1.454-1.999,3.799-3.193,6.275-3.193c1.64,0,3.211,0.512,4.545,1.48
		c1.658,1.199,2.785,3.039,3.096,5.053c0.323,2.049-0.17,4.093-1.384,5.765C245.691,131.079,243.346,132.273,240.87,132.273
		L240.87,132.273z"/>
	<path fill="#0E0F0F" d="M113.204,296.612c-1.641,0-3.211-0.512-4.545-1.48c-1.673-1.217-2.773-3.011-3.097-5.055
		s0.169-4.09,1.384-5.764c1.454-1.999,3.799-3.193,6.275-3.193c1.64,0,3.211,0.512,4.545,1.48c1.658,1.199,2.785,3.039,3.096,5.053
		c0.323,2.049-0.17,4.093-1.384,5.765C118.025,295.419,115.68,296.612,113.204,296.612L113.204,296.612z"/>
	<path fill="#0E0F0F" d="M290.841,187.787c-1.21,0-2.194-0.984-2.194-2.194v-5.551c0-1.21,0.984-2.194,2.194-2.194
		s2.194,0.984,2.194,2.194v5.551C293.035,186.802,292.05,187.787,290.841,187.787z"/>
	<path fill="#0E0F0F" d="M290.841,160.033c-1.21,0-2.194-0.985-2.194-2.194v-5.551c0-1.21,0.984-2.194,2.194-2.194
		s2.194,0.985,2.194,2.194v5.551C293.035,159.048,292.05,160.033,290.841,160.033z"/>
	<path fill="#0E0F0F" d="M301.943,171.134c-1.21,0-2.194-0.984-2.194-2.194c0-1.21,0.984-2.194,2.194-2.194h5.551
		c1.21,0,2.194,0.984,2.194,2.194c0,1.21-0.984,2.194-2.194,2.194H301.943z"/>
	<path fill="#0E0F0F" d="M274.188,171.134c-1.21,0-2.194-0.984-2.194-2.194c0-1.21,0.984-2.194,2.194-2.194h5.551
		c1.21,0,2.194,0.984,2.194,2.194c0,1.21-0.984,2.194-2.194,2.194H274.188z"/>
	<path fill="#0E0F0F" d="M179.823,326.559c-1.21,0-2.194-0.984-2.194-2.194v-5.551c0-1.21,0.984-2.194,2.194-2.194
		s2.194,0.984,2.194,2.194v5.551C182.016,325.575,181.032,326.559,179.823,326.559z"/>
	<path fill="#0E0F0F" d="M179.823,298.805c-1.21,0-2.194-0.984-2.194-2.194v-5.551c0-1.21,0.984-2.194,2.194-2.194
		s2.194,0.984,2.194,2.194v5.551C182.016,297.82,181.032,298.805,179.823,298.805z"/>
	<path fill="#0E0F0F" d="M190.925,309.906c-1.21,0-2.194-0.984-2.194-2.194s0.984-2.194,2.194-2.194h5.551
		c1.21,0,2.194,0.984,2.194,2.194s-0.984,2.194-2.194,2.194H190.925z"/>
	<path fill="#0E0F0F" d="M163.17,309.906c-1.21,0-2.194-0.984-2.194-2.194s0.984-2.194,2.194-2.194h5.551
		c1.21,0,2.194,0.984,2.194,2.194s-0.984,2.194-2.194,2.194H163.17z"/>
</g>
</svg>
