<?xml version="1.0" encoding="utf-8"?>
<!-- Generator: Adobe Illustrator 21.1.0, SVG Export Plug-In . SVG Version: 6.00 Build 0)  -->
<svg version="1.1" id="Слой_1" xmlns="http://www.w3.org/2000/svg" xmlns:xlink="http://www.w3.org/1999/xlink" x="0px" y="0px"
	 viewBox="0 0 13.85 13.85" enable-background="new 0 0 13.85 13.85" xml:space="preserve">
<path d="M13.85,2.364v9.113c0,1.31-1.062,2.372-2.364,2.372H9.505V8.53h1.781l0.271-2.069H9.505V5.136
	c0-0.599,0.168-1.006,1.022-1.006h1.102V2.276c-0.192-0.024-0.839-0.08-1.597-0.08c-1.581,0-2.668,0.959-2.668,2.732v1.533H5.575
	V8.53h1.789v5.319H2.372C1.062,13.85,0,12.787,0,11.478V2.364C0,1.062,1.062,0,2.372,0h9.113C12.787,0,13.85,1.062,13.85,2.364z"/>
</svg>
