<?xml version="1.0" encoding="utf-8"?>
<!-- Generator: Adobe Illustrator 21.1.0, SVG Export Plug-In . SVG Version: 6.00 Build 0)  -->
<svg version="1.1" id="Слой_1" xmlns="http://www.w3.org/2000/svg" xmlns:xlink="http://www.w3.org/1999/xlink" x="0px" y="0px"
	 viewBox="0 0 15.109 15.099" enable-background="new 0 0 15.109 15.099" xml:space="preserve">
<path fill-rule="evenodd" clip-rule="evenodd" d="M7.198,5.71c0.564-0.102,1.087,0.039,1.518,0.374
	c0.1,0.078,0.127,0.118,0.127,0.118c0-0.002,0.003,0.004,0.004,0.006C8.894,6.23,8.864,6.211,8.9,6.246l0.247,0.321
	C9.441,7.083,9.51,7.579,9.321,8.164C9.059,8.97,8.233,9.512,7.304,9.405c-0.22-0.026-0.344-0.075-0.518-0.145
	c-0.598-0.24-1.035-0.863-1.104-1.527C5.649,7.418,5.697,7.146,5.8,6.868l0.087-0.193c0.022-0.026,0.009-0.012,0.031-0.03
	c0.013-0.153,0.38-0.5,0.507-0.596C6.627,5.897,6.89,5.766,7.198,5.71 M7.476,4.678c-0.329,0.011-0.624,0.07-0.904,0.168
	C6.048,5.029,5.688,5.328,5.33,5.721L5.213,5.869C5.112,6.001,4.935,6.351,4.922,6.366c-0.03,0.114-0.085,0.212-0.119,0.327
	C4.769,6.81,4.748,6.915,4.722,7.037C4.6,7.604,4.706,8.316,4.969,8.826C4.994,8.874,5.11,9.07,5.115,9.094L5.37,9.418
	c0.211,0.241,0.342,0.35,0.604,0.534c0.5,0.351,1.174,0.501,1.799,0.459c0.189-0.012,0.332-0.059,0.498-0.079
	c0.072-0.033,0.209-0.058,0.294-0.092c0.3-0.118,0.53-0.246,0.781-0.45C9.538,9.634,9.801,9.367,9.93,9.157l0.207-0.352l0.004-0.009
	c0.288-0.598,0.349-1.268,0.202-1.915c-0.058-0.253-0.139-0.392-0.217-0.616c0,0-0.185-0.307-0.2-0.331
	C9.859,5.829,9.779,5.737,9.692,5.638C9.51,5.431,9.349,5.305,9.123,5.147C8.73,4.872,8.087,4.657,7.476,4.678z M11.203,4.494
	C11.167,4.16,10.847,3.852,10.474,3.9C10.078,3.95,9.822,4.298,9.87,4.634C10.001,5.539,11.294,5.345,11.203,4.494z M9.409,2.968
	c0.79,0.018,1.576,0.064,2.138,0.67c0.334,0.361,0.486,0.783,0.549,1.305c0.019,0.157,0.062,0.755,0.035,0.891
	c0.045,0.073,0.02,1.855,0.02,2.101c-0.001,0.692,0.01,1.405-0.042,2.091c-0.069,0.91-0.445,1.579-1.277,1.912
	c-0.159,0.064-0.729,0.198-0.905,0.162c-0.003,0.002-0.008,0-0.009,0.004c-0.009,0.019-0.574,0.031-0.588,0.032
	c-0.628,0.023-1.253-0.006-1.867,0.012c-0.676,0.022-1.417-0.003-2.091-0.03c-0.343-0.014-0.627-0.039-0.933-0.127
	c-0.152-0.044-0.249-0.086-0.383-0.147c-0.092-0.042-0.268-0.146-0.319-0.218c-0.102-0.063-0.288-0.266-0.355-0.366
	c-0.104-0.155-0.183-0.307-0.247-0.495c-0.131-0.384-0.171-0.868-0.171-1.31C2.971,9.039,2.9,5.931,2.966,5.818
	C2.943,5.707,2.994,5.034,3.004,4.919c0.023-0.235,0.102-0.548,0.19-0.738C3.68,3.127,4.582,2.983,5.716,2.967
	C6.912,2.949,8.208,2.94,9.409,2.968z M11.88,2.603c-0.553-0.399-1.163-0.563-1.982-0.616C9.07,1.934,8.193,1.949,7.357,1.95
	c-0.433,0-0.866,0.001-1.298,0.008C5.68,1.965,5.2,1.964,4.831,2.017C4.428,2.076,4.137,2.138,3.795,2.279
	c-0.252,0.103-0.405,0.2-0.616,0.352L3.005,2.775c-0.18,0.173-0.317,0.312-0.46,0.52C2.519,3.334,2.509,3.351,2.483,3.39
	C2.306,3.646,2.139,4.128,2.075,4.429C1.951,5.02,1.93,6.244,1.944,6.876c0.01,0.435,0,0.886,0,1.323
	c0,0.221,0.001,0.43,0.004,0.649c0.002,0.134,0.025,0.564,0.003,0.662C1.971,9.542,1.968,9.608,1.97,9.655
	c0.022,0.674,0.091,1.218,0.384,1.826c0.033,0.069,0.101,0.168,0.112,0.225c0.031,0.021,0.034,0.023,0.056,0.059l0.142,0.201
	c0.045,0.048,0.059,0.08,0.102,0.123l0.223,0.227c0.036,0.036,0.081,0.063,0.124,0.102c0.075,0.069,0.194,0.129,0.248,0.19
	c0.068,0.021,0.12,0.062,0.181,0.095c0.058,0.031,0.115,0.056,0.18,0.086c1.057,0.481,2.283,0.308,3.4,0.361l1.929-0.007
	c0.238,0.003,0.514-0.013,0.769-0.025c0.121-0.006,0.249-0.014,0.37-0.026c0.116-0.011,0.235-0.042,0.352-0.049
	c0.392-0.086,0.485-0.106,0.862-0.268c0.25-0.107,0.523-0.294,0.694-0.457l0.143-0.134c0.031-0.035,0.036-0.051,0.066-0.081
	c0.028-0.029,0.042-0.038,0.071-0.074c0.191-0.232,0.316-0.416,0.433-0.706c0.121-0.296,0.21-0.575,0.252-0.901
	c0.071-0.554,0.079-1.075,0.086-1.628c0.009-0.76-0.015-1.534,0.003-2.291c0.001-0.81-0.001-1.651-0.211-2.379
	c-0.138-0.476-0.309-0.727-0.568-1.061L11.88,2.603z M15.102,4.995C15.082,5.267,15.1,6.319,15.1,6.676c0,0.56,0,1.121,0,1.681
	c0,0.561-0.001,1.122,0,1.683c0.001,0.546,0.017,1.127-0.009,1.666c-0.036,0.729-0.228,1.505-0.671,2.06l-0.299,0.336
	c-0.318,0.32-0.407,0.334-0.715,0.542c-0.07,0.047-0.202,0.097-0.286,0.138c-0.286,0.14-1.026,0.301-1.401,0.29l-1.05,0.022
	l-1.061,0.001l-1.274,0c-0.628-0.019-1.286,0.001-1.917,0.001c-0.639,0-1.281,0.006-1.92,0c-0.831-0.007-1.796,0.011-2.545-0.342
	l-0.316-0.16C1.614,14.582,1.37,14.431,1.352,14.4c-0.061-0.027-0.059-0.04-0.106-0.075l-0.199-0.174
	c-0.03-0.029-0.06-0.065-0.091-0.094c-0.051-0.05-0.3-0.33-0.317-0.405c-0.05-0.029-0.036-0.035-0.084-0.105
	c-0.022-0.033-0.047-0.083-0.074-0.128c-0.087-0.146-0.333-0.711-0.32-0.851c-0.002-0.003-0.005-0.011-0.005-0.009l-0.031-0.107
	c-0.008-0.044-0.016-0.09-0.023-0.136c-0.007-0.045-0.012-0.085-0.018-0.13l-0.014-0.1c-0.05-0.349-0.055-0.844-0.056-1.199
	c0-0.194,0.012-0.435-0.004-0.622V8.052c-0.019-0.268-0.001-0.608,0-0.884c0.001-0.291,0-0.584,0.001-0.875
	c0.001-0.587-0.001-1.174,0.001-1.761c0.005-1.237,0.01-2.077,0.534-2.961c0.215-0.362,0.537-0.685,0.85-0.912
	C2.25,0.041,3.207,0.003,4.259,0.003h5.282c0.737,0,1.866-0.025,2.583,0.061c0.698,0.084,1.371,0.346,1.848,0.79
	c0.083,0.078,0.16,0.139,0.231,0.22c0.288,0.332,0.521,0.66,0.667,1.096c0.03,0.09,0.072,0.212,0.102,0.336
	c0.057,0.24,0.095,0.499,0.115,0.755C15.106,3.499,15.118,4.772,15.102,4.995z"/>
</svg>
