<?xml version="1.0" encoding="utf-8"?>
<!-- Generator: Adobe Illustrator 21.1.0, SVG Export Plug-In . SVG Version: 6.00 Build 0)  -->
<svg version="1.1" id="Слой_1" xmlns="http://www.w3.org/2000/svg" xmlns:xlink="http://www.w3.org/1999/xlink" x="0px" y="0px"
	 viewBox="0 0 18.107 10.864" enable-background="new 0 0 18.107 10.864" xml:space="preserve">
<path fill-rule="evenodd" clip-rule="evenodd" d="M5.998,1.207c1.322,0,1.245,0.016,1.245,1.508c0,0.83-0.065,2.078-0.376,2.567
	c-0.442,0.694-1.793-1.75-2.022-2.13L3.72,1.335c-0.15-0.225-0.458-0.732-0.777-0.732H0.717C0.044,0.604,0.002,0.854,0,1.096v0.073
	c0,0.237,0.8,1.963,1.018,2.453C1.444,4.58,2.094,5.741,2.732,6.585c0.336,0.444,0.926,1.209,1.295,1.573
	c0.391,0.387,0.74,0.822,1.179,1.16c0.717,0.552,0.797,0.694,1.785,1.157c0.842,0.395,1.779,0.39,2.741,0.39
	c0.31,0,0.466-0.393,0.514-0.693c0.062-0.395-0.114-1.226,0.826-1.626c0.521-0.222,0.922,0.064,1.306,0.352l0.658,0.549
	c0.273,0.211,0.929,0.97,1.266,1.224c0.131,0.098,0.225,0.194,0.448,0.194h2.225c0.276,0,0.605-0.188,0.772-0.322
	c0.297-0.241,0.36-0.556,0.36-0.923c0-0.372-0.618-1.142-0.914-1.462l-0.999-1.038c-0.912-0.878-1.598-0.597-0.339-2.28
	C16.482,4,18.107,1.865,18.107,1.094c0-0.29-0.858-0.477-1.097-0.526c-0.814-0.166-1.008-0.191-1.846-0.191
	c-0.636,0-0.763,0.26-1.181,0.969c-0.075,0.127-0.128,0.203-0.207,0.321c-0.083,0.124-0.134,0.219-0.218,0.347
	c-0.713,1.086-0.955,1.821-1.486,2.89c-0.337,0.679-0.831,0.751-1.062,0.005c-0.105-0.339-0.194-1.447-0.13-1.875
	c0.045-0.297,0.021-1.532,0.021-1.94C10.902,0.695,10.705,0,10.261,0H8.299C7.722,0,6.843,0.393,6.442,0.746
	C6.255,0.91,6.118,0.98,5.998,1.207"/>
</svg>
