<?xml version="1.0" encoding="utf-8"?><svg xmlns="http://www.w3.org/2000/svg" xmlns:xlink="http://www.w3.org/1999/xlink"><symbol viewBox="0 0 57.7 65.028" id="icons--alcohol" xmlns="http://www.w3.org/2000/svg"><path d="M49.286 38.731l-6.553 8.402c-.252.336-.252.756 0 1.092s.588.588.924.924c1.092.924 2.52 1.344 3.865 1.344.252 0 .504 0 .756-.084a5.959 5.959 0 0 0 4.201-2.352c1.008-1.344 1.512-2.941 1.344-4.621a5.959 5.959 0 0 0-2.352-4.201c-.336-.252-.756-.504-1.176-.756-.337-.168-.757 0-1.009.252zm2.856 4.957c.168 1.26-.168 2.436-1.008 3.361a4.15 4.15 0 0 1-3.109 1.68c-1.26.168-2.436-.168-3.361-1.008-.084-.084-.168-.084-.168-.168l5.713-7.225c.084.084.168.168.252.168.925.84 1.597 1.932 1.681 3.192z"/><path d="M49.622 50.115c-.336-.252-.924-.252-1.176.168-.252.336-.252.924.168 1.176l.504.42c.168.084.336.168.504.168.252 0 .504-.084.672-.336.252-.336.252-.924-.168-1.176l-.504-.42zm-2.269 1.008c-.504 0-.84.336-.84.84v.924c0 .504.336.84.84.84.42 0 .84-.336.84-.84v-.924c0-.42-.336-.84-.84-.84zm1.681-2.1c.084.42.42.672.84.672h.168l.84-.168c.42-.084.756-.588.588-1.008-.084-.42-.588-.756-1.008-.588l-.84.168c-.42.084-.672.504-.588.924zm-.336-20.878a6.257 6.257 0 0 0-4.705-1.176c-1.68.252-3.109 1.176-4.117 2.52a5.356 5.356 0 0 0-.672 1.176.802.802 0 0 0 .252 1.008l8.654 6.301c.168.084.336.168.504.168.168 0 .42-.084.588-.252.336-.252.588-.588.84-.924 2.1-2.856 1.512-6.805-1.344-8.821zm0 7.814c-.084.084-.084.168-.168.168l-7.477-5.377c.084-.084.084-.168.168-.252.756-1.008 1.764-1.68 3.025-1.848 1.26-.168 2.436.084 3.445.84 2.099 1.512 2.519 4.368 1.007 6.469z"/><path d="M47.185 31.674c.252-.336.168-.924-.168-1.176-.336-.252-.924-.168-1.176.168l-.336.504c-.252.336-.168.924.168 1.176.168.084.336.168.504.168.252 0 .504-.084.672-.336l.336-.504zm.168.84c-.504 0-.84.42-.84.84s.42.84.84.84h.924c.504 0 .84-.42.84-.84 0-.504-.42-.84-.84-.84h-.924zm-2.604-2.605c-.168-.42-.588-.672-1.008-.588-.42.168-.672.588-.588 1.008l.252.84c.084.336.42.588.84.588h.252c.42-.168.672-.588.588-1.008l-.336-.84z"/><path d="M31.138 14.703c-.084.252-.084.588.084.84.084.084 5.545 7.645 5.377 16.299-.42 14.535 3.781 22.264 12.266 23.272l1.512 7.225-4.705 1.008A.871.871 0 0 0 45 64.355c.084.42.42.672.84.672h.168l11.006-2.268a.871.871 0 0 0 .672-1.008.871.871 0 0 0-1.008-.672l-4.621.84-1.512-7.141c7.561-4.285 8.318-13.106 2.1-26.297-3.613-7.813-1.596-16.971-1.596-17.055a.677.677 0 0 0-.252-.756c-.168-.168-.504-.252-.756-.252l-18.315 3.781c-.252 0-.504.252-.588.504zm19.996 14.45c5.881 12.602 5.293 20.5-1.68 24.28-7.897-.672-11.594-7.729-11.174-21.592.084-3.109-.504-6.133-1.344-8.738l.084-.084c.672-.84 1.344-1.512 2.688-1.764s2.184.084 3.193.588c1.092.504 2.352 1.092 4.201.756a5.607 5.607 0 0 0 2.016-.84 24.954 24.954 0 0 0 2.016 7.394zm-1.932-16.887c-.252 1.512-.504 4.201-.336 7.393-.588.588-1.092 1.008-2.184 1.26-1.344.252-2.184-.084-3.193-.588-1.092-.504-2.352-1.092-4.201-.756-1.512.336-2.352 1.008-3.109 1.764a32.587 32.587 0 0 0-2.941-5.797l15.964-3.276zM34.037 0c-.504 0-.84.336-.84.84v4.957c0 .504.336.84.84.84s.84-.336.84-.84V.84c0-.42-.42-.84-.84-.84zm3.444 7.897c.168 0 .252 0 .42-.084l4.285-2.436c.42-.252.504-.756.336-1.176-.168-.42-.756-.504-1.176-.336l-4.285 2.436c-.42.252-.504.756-.336 1.176.168.252.504.42.756.42zM1.145 53.35c-.42-.168-.924.084-1.092.504-.168.42.084.924.504 1.092l10.586 3.697c.084 0 .168.084.252.084a.807.807 0 0 0 .756-.588c.168-.42-.084-.924-.504-1.092L7.11 55.45l2.52-7.141 4.117 1.428c.252.084.588.168.84.168.924 0 1.68-.504 2.016-1.26l14.703-37.387a1.431 1.431 0 0 0 0-.84c-.168-.336-.42-.504-.672-.672L16.016 4.621c-.336-.084-.672-.084-.924.084s-.504.336-.588.672L2.573 43.688c-.336 1.092.336 2.268 1.512 2.688l4.117 1.428-2.52 7.141-4.537-1.595zM16.016 6.469l13.61 4.789-1.26 3.193c-.672-.756-1.596-1.596-3.109-2.1-2.1-.756-3.529-.336-4.789-.084-1.176.336-2.184.588-3.781 0-1.008-.336-1.68-.84-2.1-1.344l1.429-4.454zM4.169 44.192l9.914-31.506c.504.42 1.176.84 2.1 1.176 2.1.756 3.529.336 4.789.084 1.176-.336 2.184-.588 3.781 0s2.184 1.344 2.941 2.352L15.175 48.057c-.084.168-.42.252-.756.168l-9.83-3.445c-.336-.084-.504-.42-.42-.588z"/><path d="M16.688 23.608c-.336.168-.672.504-.756.84-.168.42-.084.84.084 1.176l1.344 2.773c.252.588.84.84 1.344.84.252 0 .42-.084.672-.168l2.773-1.344c.336-.168.672-.504.756-.84.168-.42.084-.84-.084-1.176l-1.26-2.688c-.336-.756-1.26-1.092-2.016-.756l-2.857 1.343zm4.621 2.773l-2.52 1.176-1.176-2.52 2.52-1.176 1.176 2.52zm-6.47 7.477c.672 0 1.344-.504 1.512-1.26l.588-3.025c.168-.84-.336-1.596-1.176-1.764l-3.025-.588c-.42-.084-.84 0-1.176.252-.336.252-.588.588-.672 1.008l-.588 3.025c-.168.84.336 1.596 1.176 1.764l3.025.588c.168-.084.252 0 .336 0zm-2.268-5.041l2.773.588-.588 2.773-2.773-.588.588-2.773zm2.688-6.805h.084l3.109-.168c.84-.084 1.512-.756 1.428-1.596l-.168-3.109c0-.42-.168-.756-.504-1.092-.336-.252-.672-.42-1.092-.42l-3.109.168c-.84.084-1.512.756-1.428 1.596l.168 3.109c.084.924.756 1.512 1.512 1.512zm2.857-4.621l.168 2.773-2.773.168-.168-2.773 2.773-.168z"/></symbol><symbol viewBox="0 0 16 8" id="icons--arrow-bottom" xmlns="http://www.w3.org/2000/svg"><path d="M8 8L0 0h16z"/></symbol><symbol viewBox="0 0 22.18 27.712" id="icons--arrow-left" xmlns="http://www.w3.org/2000/svg"><path fill="#0E0F0F" d="M22.18 0H9.157L0 13.856l9.157 13.856H22.18l-9.157-13.856z"/></symbol><symbol viewBox="0 0 22.18 27.712" id="icons--arrow-right" xmlns="http://www.w3.org/2000/svg"><path fill="#0E0F0F" d="M13.023 0H0l9.157 13.856L0 27.712h13.023l9.157-13.856z"/></symbol><symbol viewBox="0 0 331.893 326.559" id="icons--celebration" xmlns="http://www.w3.org/2000/svg"><g fill="#0E0F0F"><path d="M52.152 148.931a2.205 2.205 0 0 1-1.755-.877l-29.859-39.812a3.358 3.358 0 0 0-2.685-1.343c-.045 0-.901.034-.901.034-4.848.196-9.862.399-14.757.399-1.21 0-2.194-.985-2.194-2.194s.984-2.194 2.194-2.194c55.795-.087 112.051-12.511 162.69-35.93.365-.166.667-.232.977-.232.863 0 1.649.508 2.004 1.293a2.197 2.197 0 0 1-1.099 2.903c-5.427 2.52-10.906 4.806-16.022 6.903a3.354 3.354 0 0 0-2.057 2.688l-5.551 44.213a2.21 2.21 0 0 1-1.318 1.772 2.133 2.133 0 0 1-.843.175c-.48 0-.947-.156-1.323-.438l-40.236-30.17a3.352 3.352 0 0 0-2.825-.572 392.147 392.147 0 0 1-19.67 4.364c-1.074.21-1.98.93-2.424 1.931l-20.35 45.783a2.203 2.203 0 0 1-1.757 1.292 2.428 2.428 0 0 1-.239.012zm12.178-46.628c-.177 0-.355.014-.533.043-10.329 1.66-21.092 2.895-32.905 3.775a3.358 3.358 0 0 0-2.436 5.361l19.777 26.373a3.355 3.355 0 0 0 5.753-.651l13.411-30.18a3.357 3.357 0 0 0-3.067-4.721zm75.915-20.111c-.393 0-.788.069-1.167.209-10.352 3.838-19.802 6.972-28.891 9.579a3.356 3.356 0 0 0-1.087 5.913l25.534 19.145a3.352 3.352 0 0 0 3.326.404 3.354 3.354 0 0 0 2.018-2.673l3.598-28.803a3.356 3.356 0 0 0-3.331-3.774zM35.498 326.558a2.18 2.18 0 0 1-1.551-.642L.643 292.611a2.206 2.206 0 0 1-.642-1.55 2.18 2.18 0 0 1 .642-1.553 2.177 2.177 0 0 1 1.551-.642H33.2c.89 0 1.744-.354 2.374-.983l29.487-29.488a3.354 3.354 0 0 0 .407-4.252c-6.883-10.188-5.569-23.893 3.124-32.588l50.171-50.165 36.406 36.406-50.164 50.149c-4.859 4.866-11.323 7.545-18.201 7.545a25.592 25.592 0 0 1-14.388-4.41 3.35 3.35 0 0 0-4.253.408l-29.486 29.497a3.357 3.357 0 0 0-.983 2.373v31.008c0 .576-.234 1.141-.641 1.547a2.184 2.184 0 0 1-1.555.645zm-19.905-33.304a3.36 3.36 0 0 0-3.102 2.072 3.36 3.36 0 0 0 .727 3.659l14.355 14.355a3.359 3.359 0 0 0 5.731-2.375V296.61a3.357 3.357 0 0 0-3.357-3.357H15.593zm53.35-55.509a3.356 3.356 0 0 0-3.348 3.597 21.283 21.283 0 0 0 6.201 13.558 21.15 21.15 0 0 0 15.03 6.214 21.141 21.141 0 0 0 15.073-6.255l11.382-11.382a3.358 3.358 0 0 0-2.373-5.731H68.943zm49.82-58.762c-.859 0-1.718.328-2.373.983L71.699 224.65a21.723 21.723 0 0 0-2.83 3.539 3.36 3.36 0 0 0 2.826 5.168h50.319c.89 0 1.744-.354 2.374-.983l22.204-22.204a3.358 3.358 0 0 0 0-4.747l-25.456-25.457a3.346 3.346 0 0 0-2.373-.983zm177.63 147.575a2.196 2.196 0 0 1-2.195-2.193v-31.008c0-.89-.354-1.744-.984-2.374l-29.498-29.497a3.351 3.351 0 0 0-4.252-.407 25.612 25.612 0 0 1-14.39 4.411c-6.881 0-13.344-2.679-18.202-7.542l-50.151-50.151 36.408-36.407 50.154 50.159c8.699 8.695 10.015 22.404 3.129 32.594a3.355 3.355 0 0 0 .408 4.253l29.497 29.487a3.357 3.357 0 0 0 2.373.983h31.008c.892 0 1.687.531 2.028 1.354.34.821.153 1.76-.478 2.39l-33.307 33.305a2.2 2.2 0 0 1-1.548.643zm5.55-33.304a3.357 3.357 0 0 0-3.357 3.357v14.355a3.36 3.36 0 0 0 3.356 3.358c.874 0 1.732-.341 2.375-.984l14.354-14.355a3.355 3.355 0 0 0-2.375-5.73h-14.353zm-71.961-38.4a21.184 21.184 0 0 0 15.086 6.253c1.69 0 3.379-.202 5.022-.6 11.427-2.769 18.472-14.318 15.703-25.746a3.355 3.355 0 0 0-3.262-2.567h-47.105a3.358 3.358 0 0 0-2.373 5.731l16.816 16.81c.037.041.074.08.113.119zm-16.854-75.871c-.89 0-1.744.354-2.373.983l-25.457 25.457a3.358 3.358 0 0 0 0 4.748l16.652 16.652c.63.63 1.484.984 2.374.984h50.912a3.36 3.36 0 0 0 3.102-2.072 3.359 3.359 0 0 0-.727-3.658l-42.108-42.109a3.353 3.353 0 0 0-2.375-.985z"/><path d="M285.3 98.991a2.186 2.186 0 0 1-1.871-1.04l-26.127-41.809a3.36 3.36 0 0 0-2.847-1.577h-.555c-4.656 0-9.585-.13-15.508-.408a3.359 3.359 0 0 0-2.706 1.169l-31.995 37.33a2.189 2.189 0 0 1-1.664.766 2.198 2.198 0 0 1-2.075-1.424l-16.303-43.487a3.357 3.357 0 0 0-2.404-2.096 328.185 328.185 0 0 1-27.472-7.472 3.363 3.363 0 0 0-3.036.512l-41.759 31.324a2.205 2.205 0 0 1-1.316.439 2.197 2.197 0 0 1-2.194-2.194V21.18a3.355 3.355 0 0 0-1.823-2.985c-8.781-4.513-17.16-9.27-24.905-14.139a2.2 2.2 0 0 1-.693-3.028 2.19 2.19 0 0 1 3.026-.691c51.792 32.606 111.519 49.841 172.722 49.84h70.351c1.21 0 2.194.985 2.194 2.194 0 1.21-.984 2.194-2.194 2.194h-8.027a3.354 3.354 0 0 0-2.847 1.579l-26.107 41.798a2.213 2.213 0 0 1-.715.719c-.352.219-.739.33-1.15.33zm-17.773-44.426a3.356 3.356 0 0 0-2.846 5.137l17.763 28.382a3.36 3.36 0 0 0 5.692 0l17.763-28.382a3.359 3.359 0 0 0-2.846-5.137h-35.526zm-74.155-5.551a3.356 3.356 0 0 0-3.143 4.536l10.552 28.11a3.358 3.358 0 0 0 5.691 1.007l20.5-23.886a3.358 3.358 0 0 0-2.254-5.53 326.93 326.93 0 0 1-30.736-4.181 3.32 3.32 0 0 0-.61-.056zm-80.16-25.745a3.356 3.356 0 0 0-3.357 3.357v31.296a3.356 3.356 0 0 0 5.372 2.685l26.815-20.111a3.358 3.358 0 0 0-.865-5.839c-8.583-3.128-17.513-6.854-26.544-11.073a3.36 3.36 0 0 0-1.421-.315zm49.958 137.874a2.197 2.197 0 0 1-2.194-2.194v-16.653c0-1.21.984-2.194 2.194-2.194s2.194.985 2.194 2.194v16.653a2.197 2.197 0 0 1-2.194 2.194zm-16.66 4.44a2.2 2.2 0 0 1-1.899-1.096l-8.326-14.432c-.624-1.097-.256-2.439.797-3.037a2.154 2.154 0 0 1 1.079-.288c.791 0 1.524.426 1.914 1.111l8.337 14.45a2.196 2.196 0 0 1-1.897 3.291h-.005zm-8.342 92.177c-.392 0-.763-.102-1.106-.302a2.179 2.179 0 0 1-1.013-1.338 2.182 2.182 0 0 1 .23-1.664l8.338-14.452a2.169 2.169 0 0 1 1.885-1.066c.382 0 .745.097 1.08.288.51.29.877.761 1.032 1.325a2.175 2.175 0 0 1-.208 1.666l-8.378 14.524c-.361.615-1.07 1.019-1.86 1.019zm25.002 6.629a2.196 2.196 0 0 1-2.194-2.194v-16.653c0-1.21.984-2.194 2.194-2.194s2.194.984 2.194 2.194v16.653c0 1.21-.984 2.194-2.194 2.194zm24.965-6.692c-.79 0-1.5-.406-1.898-1.085l-8.315-14.413c-.624-1.097-.256-2.44.797-3.038a2.153 2.153 0 0 1 1.079-.287c.79 0 1.523.426 1.912 1.11l8.338 14.452c.579 1.019.221 2.355-.81 2.958a2.145 2.145 0 0 1-1.103.303zm-8.337-92.081a2.17 2.17 0 0 1-1.107-.302 2.199 2.199 0 0 1-.781-3.003s8.381-14.528 8.4-14.566c.361-.611 1.071-1.016 1.861-1.016.391 0 .763.102 1.106.302a2.18 2.18 0 0 1 1.013 1.339 2.183 2.183 0 0 1-.231 1.664s-8.381 14.527-8.4 14.565c-.361.612-1.071 1.017-1.861 1.017zm55.534 149.841c-7.332 0-13.296-5.964-13.296-13.296s5.964-13.296 13.296-13.296 13.296 5.964 13.296 13.296-5.964 13.296-13.296 13.296zm0-22.203c-4.911 0-8.908 3.997-8.908 8.908s3.997 8.908 8.908 8.908 8.908-3.997 8.908-8.908c0-4.912-3.997-8.908-8.908-8.908zm-183.18-99.917c-7.332 0-13.296-5.964-13.296-13.296s5.964-13.296 13.296-13.296 13.296 5.964 13.296 13.296-5.964 13.296-13.296 13.296zm0-22.203c-4.911 0-8.908 3.997-8.908 8.908s3.997 8.908 8.908 8.908 8.908-3.997 8.908-8.908-3.997-8.908-8.908-8.908zm188.718-38.861a7.69 7.69 0 0 1-4.545-1.48 7.7 7.7 0 0 1-3.097-5.055 7.698 7.698 0 0 1 1.384-5.764 7.78 7.78 0 0 1 6.275-3.193c1.64 0 3.211.512 4.545 1.48a7.73 7.73 0 0 1 3.096 5.053 7.7 7.7 0 0 1-1.384 5.765 7.776 7.776 0 0 1-6.274 3.194zM113.204 296.612a7.69 7.69 0 0 1-4.545-1.48c-1.673-1.217-2.773-3.011-3.097-5.055s.169-4.09 1.384-5.764a7.78 7.78 0 0 1 6.275-3.193c1.64 0 3.211.512 4.545 1.48a7.73 7.73 0 0 1 3.096 5.053 7.7 7.7 0 0 1-1.384 5.765 7.773 7.773 0 0 1-6.274 3.194zm177.637-108.825a2.196 2.196 0 0 1-2.194-2.194v-5.551c0-1.21.984-2.194 2.194-2.194s2.194.984 2.194 2.194v5.551a2.197 2.197 0 0 1-2.194 2.194zm0-27.754a2.197 2.197 0 0 1-2.194-2.194v-5.551c0-1.21.984-2.194 2.194-2.194s2.194.985 2.194 2.194v5.551a2.197 2.197 0 0 1-2.194 2.194zm11.102 11.101a2.196 2.196 0 0 1-2.194-2.194c0-1.21.984-2.194 2.194-2.194h5.551c1.21 0 2.194.984 2.194 2.194s-.984 2.194-2.194 2.194h-5.551zm-27.755 0a2.196 2.196 0 0 1-2.194-2.194c0-1.21.984-2.194 2.194-2.194h5.551c1.21 0 2.194.984 2.194 2.194s-.984 2.194-2.194 2.194h-5.551zm-94.365 155.425a2.196 2.196 0 0 1-2.194-2.194v-5.551c0-1.21.984-2.194 2.194-2.194s2.194.984 2.194 2.194v5.551a2.197 2.197 0 0 1-2.194 2.194zm0-27.754a2.196 2.196 0 0 1-2.194-2.194v-5.551c0-1.21.984-2.194 2.194-2.194s2.194.984 2.194 2.194v5.551a2.198 2.198 0 0 1-2.194 2.194zm11.102 11.101c-1.21 0-2.194-.984-2.194-2.194s.984-2.194 2.194-2.194h5.551c1.21 0 2.194.984 2.194 2.194s-.984 2.194-2.194 2.194h-5.551zm-27.755 0c-1.21 0-2.194-.984-2.194-2.194s.984-2.194 2.194-2.194h5.551c1.21 0 2.194.984 2.194 2.194s-.984 2.194-2.194 2.194h-5.551z"/></g></symbol><symbol viewBox="0 0 61.947 62.807" id="icons--dish" xmlns="http://www.w3.org/2000/svg"><path d="M60.891 60.7h-1.672c-.597-14.009-11.252-25.44-25.122-27.094a5.77 5.77 0 0 0 1.803-4.183c0-3.196-2.601-5.8-5.8-5.8s-5.8 2.601-5.8 5.8c0 1.727.774 3.265 1.977 4.328C12.851 35.839 2.814 47.028 2.238 60.7H1.053a1.053 1.053 0 0 0 0 2.106h59.841a1.052 1.052 0 1 0-.003-2.106zm-30.79-34.968c2.035 0 3.691 1.656 3.691 3.694s-1.656 3.694-3.691 3.694-3.691-1.656-3.691-3.694 1.655-3.694 3.691-3.694zm-1.862 9.867l3.728-.084c13.69.632 24.524 11.6 25.146 25.188H4.347c.597-13.198 10.71-23.906 23.892-25.104z"/><path d="M23.59 40.233c-4.26 1.369-7.682 3.488-10.173 6.3-2.406 2.722-4.023 6.182-4.805 10.286a1.053 1.053 0 1 0 2.067.394c.713-3.728 2.162-6.851 4.318-9.283 2.235-2.522 5.345-4.439 9.238-5.689.556-.179.858-.771.682-1.324-.182-.558-.782-.868-1.327-.684zM32.607.802a1.047 1.047 0 0 0-1.253-.774c-.563.126-.919.69-.8 1.253.008.032.608 3.122-2.509 9.325-2.975 5.924 1.069 10.944 1.243 11.155a1.053 1.053 0 1 0 1.63-1.338c-.14-.168-3.352-4.16-.987-8.87C33.444 4.551 32.644.952 32.607.802zm8.651 1.166a1.042 1.042 0 0 0-1.253-.777 1.06 1.06 0 0 0-.798 1.251c.008.032.606 3.125-2.509 9.328-3.02 6.019 1.214 11.118 1.258 11.171.208.245.5.371.8.371.24 0 .482-.082.679-.247.445-.374.5-1.037.132-1.482-.14-.166-3.362-4.126-.985-8.865 3.514-7.001 2.713-10.6 2.676-10.75zM24.793 4.301a1.05 1.05 0 0 0-1.253-.777 1.06 1.06 0 0 0-.798 1.253c.008.029.606 3.122-2.506 9.325-3.022 6.016 1.211 11.118 1.256 11.168.208.245.5.371.8.371.24 0 .482-.082.679-.247.445-.374.5-1.037.132-1.482-.142-.166-3.367-4.126-.985-8.865C25.63 8.05 24.83 4.451 24.793 4.301z"/></symbol><symbol viewBox="0 0 13.85 13.85" id="icons--fb" xmlns="http://www.w3.org/2000/svg"><path d="M13.85 2.364v9.113a2.37 2.37 0 0 1-2.364 2.372H9.505V8.53h1.781l.271-2.069H9.505V5.136c0-.599.168-1.006 1.022-1.006h1.102V2.276a15.17 15.17 0 0 0-1.597-.08c-1.581 0-2.668.959-2.668 2.732v1.533H5.575V8.53h1.789v5.319H2.372A2.371 2.371 0 0 1 0 11.478V2.364A2.37 2.37 0 0 1 2.372 0h9.113a2.37 2.37 0 0 1 2.365 2.364z"/></symbol><symbol viewBox="0 0 44.576 61.782" id="icons--glass" xmlns="http://www.w3.org/2000/svg"><path d="M32.119 9.682V.834c0-.46-.391-.834-.873-.834H11.957c-.482 0-.873.373-.873.834v8.848c0 5.186 4.141 9.467 9.432 9.987-.001.018-.006.035-.006.054v8.075c0 .126.027.246.07.358-6.564.083-6.569.966-6.569 1.309 0 .36 0 1.316 7.59 1.316s7.59-.957 7.59-1.316c0-.343-.006-1.226-6.569-1.309a1 1 0 0 0 .07-.358v-8.075c0-.019-.005-.036-.006-.054 5.292-.52 9.433-4.801 9.433-9.987zm-1.747-8.015v4.628c-1.442-.429-4.566-.988-8.991.277-4.697 1.345-7.763.424-8.552.13V1.667h17.543zm-8.771 16.389c-4.836 0-8.771-3.757-8.771-8.374V8.249c.779.232 2.045.5 3.742.5 1.45 0 3.212-.196 5.248-.778 4.7-1.346 7.769-.422 8.552-.13v1.842c0 4.616-3.935 8.373-8.771 8.373z"/><path d="M28.645 8.461c-.362 0-.655.28-.655.625 0 3.593-3.062 6.516-6.826 6.516-.362 0-.655.28-.655.625s.293.625.655.625c4.486 0 8.136-3.484 8.136-7.766 0-.345-.293-.625-.655-.625zm15.931 32.221v-8.848c0-.46-.391-.834-.873-.834h-19.29c-.482 0-.873.373-.873.834v8.848c0 5.186 4.141 9.467 9.432 9.987-.001.018-.006.035-.006.054v8.075c0 .126.027.246.07.358-6.564.083-6.569.966-6.569 1.309 0 .36 0 1.316 7.59 1.316s7.59-.957 7.59-1.316c0-.343-.006-1.226-6.569-1.309a1 1 0 0 0 .07-.358v-8.075c0-.019-.005-.036-.006-.054 5.293-.52 9.434-4.801 9.434-9.987zm-1.747-8.015v4.628c-1.442-.429-4.566-.988-8.991.277-4.697 1.345-7.763.424-8.552.13v-5.035h17.543zm-8.771 16.389c-4.836 0-8.771-3.757-8.771-8.374v-1.433c.779.232 2.045.5 3.742.5 1.45 0 3.212-.196 5.248-.778 4.7-1.346 7.769-.422 8.552-.13v1.842c0 4.616-3.935 8.373-8.771 8.373z"/><path d="M41.102 39.461c-.362 0-.655.28-.655.625 0 3.593-3.062 6.516-6.826 6.516-.362 0-.655.28-.655.625s.293.625.655.625c4.486 0 8.136-3.484 8.136-7.766 0-.345-.294-.625-.655-.625zM21.036 40.682v-8.848c0-.46-.391-.834-.873-.834H.873c-.482 0-.873.373-.873.834v8.848c0 5.186 4.141 9.467 9.432 9.987-.001.018-.006.035-.006.054v8.075c0 .126.027.246.07.358-6.564.083-6.569.966-6.569 1.309 0 .36 0 1.316 7.59 1.316s7.59-.957 7.59-1.316c0-.343-.006-1.226-6.569-1.309a1 1 0 0 0 .07-.358v-8.075c0-.019-.005-.036-.006-.054 5.293-.52 9.434-4.801 9.434-9.987zm-1.747-8.015v4.628c-1.442-.429-4.566-.988-8.991.277-4.697 1.345-7.763.424-8.552.13v-5.035h17.543zm-8.771 16.389c-4.836 0-8.771-3.757-8.771-8.374v-1.433c.779.232 2.045.5 3.742.5 1.45 0 3.212-.196 5.248-.778 4.7-1.346 7.769-.422 8.552-.13v1.842c0 4.616-3.935 8.373-8.771 8.373z"/><path d="M17.562 39.461c-.362 0-.655.28-.655.625 0 3.593-3.062 6.516-6.826 6.516-.362 0-.655.28-.655.625s.293.625.655.625c4.486 0 8.136-3.484 8.136-7.766 0-.345-.294-.625-.655-.625z"/></symbol><symbol viewBox="0 0 45.841 87.623" id="icons--hook" xmlns="http://www.w3.org/2000/svg"><path d="M44.166 67.16c2.412-3.031 2.22-7.469-.583-10.271-2.992-2.99-7.838-3.009-10.855-.066-.024.02-.051.037-.072.059a5.729 5.729 0 0 1-8.094 0 5.688 5.688 0 0 1-1.676-4.045c0-1.529.595-2.965 1.677-4.048.007-.006.011-.014.018-.021l6.411-6.411c3.013-3.013 3.014-7.915.002-10.929a7.676 7.676 0 0 0-5.466-2.263 7.667 7.667 0 0 0-5.268 2.086l-.204-.202a1.004 1.004 0 0 0-1.418 1.418l.12.119-3.188 3.187a5.623 5.623 0 0 0-1.475-1.118v-8.04h4.582a3.602 3.602 0 0 0 3.597-3.598 3.602 3.602 0 0 0-3.597-3.598h-3.265a1.042 1.042 0 0 0-.17-.017h-.476c-.289-.685-.703-2.016-.429-3.585h.057c.235 0 .449-.085.621-.22a2.647 2.647 0 0 0 1.601-2.428 2.646 2.646 0 0 0-2.643-2.643H8.97a2.646 2.646 0 0 0-2.642 2.643c0 1.333.991 2.438 2.274 2.617.286 1.583-.134 2.928-.424 3.616h-.027a1.04 1.04 0 0 0-.169.017H4.267a3.603 3.603 0 0 0-3.598 3.598 3.602 3.602 0 0 0 3.598 3.598h4.581v8.04a5.684 5.684 0 0 0-3.036 5.01 5.69 5.69 0 0 0 3.036 5.011v9.268a5.684 5.684 0 0 0-3.036 5.01 5.6 5.6 0 0 0 .318 1.853A11.436 11.436 0 0 0 0 70.959c0 3.927 1.984 7.398 5.002 9.468h-.733c-1.983 0-3.597 1.615-3.597 3.598s1.614 3.599 3.597 3.599h14.412c1.984 0 3.599-1.616 3.599-3.599s-1.614-3.598-3.599-3.598h-.738c3.018-2.07 5.003-5.541 5.003-9.468 0-4.301-2.376-8.183-6.13-10.156.207-.593.317-1.22.317-1.851a5.683 5.683 0 0 0-3.037-5.01v-9.27a5.684 5.684 0 0 0 3.037-5.011c0-.76-.158-1.496-.442-2.175L20.177 34l.085.085a1 1 0 0 0 1.417 0 1.002 1.002 0 0 0 0-1.418h-.001a5.68 5.68 0 0 1 3.851-1.499 5.69 5.69 0 0 1 4.047 1.675 5.729 5.729 0 0 1 0 8.094l-6.434 6.433c-.014.015-.023.03-.036.043a7.681 7.681 0 0 0-2.224 5.421c0 2.064.804 4.007 2.262 5.466a7.703 7.703 0 0 0 5.465 2.259 7.707 7.707 0 0 0 5.392-2.193c.024-.021.051-.037.073-.059a5.727 5.727 0 0 1 8.092 0c2.019 2.019 2.204 5.183.567 7.419l-.138-.138a1.003 1.003 0 0 0-1.418 1.417l.19.192-2.644 2.643a1.001 1.001 0 0 0 .71 1.711c.255 0 .511-.098.707-.292l2.645-2.645.014.013a.997.997 0 0 0 1.417 0 1 1 0 0 0 0-1.417l-.05-.05zM10.852 34.222V26.62h1.238v7.602h-1.238zM8.969 12.529h5.003a.64.64 0 0 1 .639.639.64.64 0 0 1-.639.638H8.969a.64.64 0 0 1 0-1.277zm1.666 3.286h1.673a8.362 8.362 0 0 0 .324 3.585h-2.319c.283-.91.51-2.157.322-3.585zm-7.962 7.2c0-.877.715-1.592 1.592-1.592h14.412c.878 0 1.592.716 1.592 1.592s-.714 1.592-1.592 1.592H4.265a1.594 1.594 0 0 1-1.592-1.592zm9.417 22.08v8.297h-1.238v-8.297h1.238zm6.59 37.336c.877 0 1.592.715 1.592 1.592 0 .877-.715 1.592-1.592 1.592H4.269a1.595 1.595 0 0 1-1.592-1.592c0-.877.715-1.592 1.592-1.592H18.68zm2.26-11.473c0 5.221-4.249 9.468-9.469 9.468-5.221 0-9.468-4.246-9.468-9.468a9.44 9.44 0 0 1 5.493-8.587h7.951a9.44 9.44 0 0 1 5.493 8.587zm-5.814-12.007c0 .483-.101.964-.292 1.413H8.108a3.615 3.615 0 0 1-.292-1.413 3.67 3.67 0 0 1 2.383-3.422c.087-.033.166-.078.24-.13h2.066c.072.052.151.097.239.13a3.668 3.668 0 0 1 2.382 3.422zm-2.383-15.867l-.011.005H10.21l-.011-.005a3.67 3.67 0 0 1-2.383-3.422c0-1.517.958-2.891 2.383-3.421l.03-.014h2.484c.01.005.02.011.031.014a3.665 3.665 0 0 1 2.383 3.421 3.67 3.67 0 0 1-2.384 3.422z"/><path d="M12.573 75.018a5.409 5.409 0 0 1-5.402-5.403 1.002 1.002 0 0 0-2.004 0c0 4.086 3.323 7.408 7.408 7.408a1.002 1.002 0 1 0-.002-2.005zM9.305 3.946c-.494.851-1.17 2.015-.154 3.699a.801.801 0 1 0 1.373-.83c-.526-.869-.294-1.269.167-2.064.067-.114.134-.231.2-.349.871-1.589.401-2.659-.356-3.995a.802.802 0 1 0-1.395.792c.68 1.2.803 1.596.345 2.432a16.08 16.08 0 0 1-.18.315zm3.153.968c-.34.588-.856 1.476-.099 2.731a.8.8 0 0 0 1.102.272.803.803 0 0 0 .273-1.101c-.267-.442-.179-.594.113-1.097.045-.078.091-.157.136-.238.696-1.266.199-2.143-.237-2.915a.803.803 0 0 0-1.398.791c.437.773.462.924.227 1.353a5.125 5.125 0 0 1-.117.204z"/></symbol><symbol viewBox="0 0 15.109 15.099" id="icons--inst" xmlns="http://www.w3.org/2000/svg"><path fill-rule="evenodd" clip-rule="evenodd" d="M7.198 5.71a1.871 1.871 0 0 1 1.518.374.647.647 0 0 1 .131.124c.047.022.017.003.053.038l.247.321c.294.516.363 1.012.174 1.597-.262.806-1.088 1.348-2.017 1.241a1.768 1.768 0 0 1-.518-.145c-.598-.24-1.035-.863-1.104-1.527a1.844 1.844 0 0 1 .118-.865l.087-.193c.022-.026.009-.012.031-.03.013-.153.38-.5.507-.596a1.84 1.84 0 0 1 .773-.339m.278-1.032c-.329.011-.624.07-.904.168-.524.183-.884.482-1.242.875l-.117.148c-.101.132-.278.482-.291.497-.03.114-.085.212-.119.327-.034.117-.055.222-.081.344-.122.567-.016 1.279.247 1.789.025.048.141.244.146.268l.255.324c.211.241.342.35.604.534.5.351 1.174.501 1.799.459.189-.012.332-.059.498-.079.072-.033.209-.058.294-.092.3-.118.53-.246.781-.45.192-.156.455-.423.584-.633l.207-.352.004-.009a2.906 2.906 0 0 0 .202-1.915c-.058-.253-.139-.392-.217-.616l-.2-.331a2.448 2.448 0 0 0-.234-.296 2.872 2.872 0 0 0-2.216-.96zm3.727-.184c-.036-.334-.356-.642-.729-.594-.396.05-.652.398-.604.734.131.905 1.424.711 1.333-.14zM9.409 2.968c.79.018 1.576.064 2.138.67.334.361.486.783.549 1.305.019.157.062.755.035.891.045.073.02 1.855.02 2.101-.001.692.01 1.405-.042 2.091-.069.91-.445 1.579-1.277 1.912-.159.064-.729.198-.905.162-.003.002-.008 0-.009.004-.009.019-.574.031-.588.032-.628.023-1.253-.006-1.867.012a29.744 29.744 0 0 1-2.091-.03c-.343-.014-.627-.039-.933-.127a2.517 2.517 0 0 1-.383-.147c-.092-.042-.268-.146-.319-.218a1.713 1.713 0 0 1-.602-.861c-.131-.384-.171-.868-.171-1.31.007-.416-.064-3.524.002-3.637-.023-.111.028-.784.038-.899.023-.235.102-.548.19-.738.486-1.054 1.388-1.198 2.522-1.214a98.84 98.84 0 0 1 3.693.001zm2.471-.365c-.553-.399-1.163-.563-1.982-.616-.828-.053-1.705-.038-2.541-.037-.433 0-.866.001-1.298.008-.379.007-.859.006-1.228.059-.403.059-.694.121-1.036.262a2.68 2.68 0 0 0-.616.352l-.174.144c-.18.173-.317.312-.46.52l-.062.095c-.177.256-.344.738-.408 1.039-.124.591-.145 1.815-.131 2.447.01.435 0 .886 0 1.323 0 .221.001.43.004.649.002.134.025.564.003.662.02.032.017.098.019.145.022.674.091 1.218.384 1.826.033.069.101.168.112.225.031.021.034.023.056.059l.142.201c.045.048.059.08.102.123l.223.227c.036.036.081.063.124.102.075.069.194.129.248.19.068.021.12.062.181.095.058.031.115.056.18.086 1.057.481 2.283.308 3.4.361l1.929-.007c.238.003.514-.013.769-.025.121-.006.249-.014.37-.026.116-.011.235-.042.352-.049.392-.086.485-.106.862-.268.25-.107.523-.294.694-.457l.143-.134c.031-.035.036-.051.066-.081.028-.029.042-.038.071-.074.191-.232.316-.416.433-.706.121-.296.21-.575.252-.901.071-.554.079-1.075.086-1.628.009-.76-.015-1.534.003-2.291.001-.81-.001-1.651-.211-2.379-.138-.476-.309-.727-.568-1.061l-.493-.46zm3.222 2.392c-.02.272-.002 1.324-.002 1.681v3.364c.001.546.017 1.127-.009 1.666-.036.729-.228 1.505-.671 2.06l-.299.336c-.318.32-.407.334-.715.542-.07.047-.202.097-.286.138-.286.14-1.026.301-1.401.29l-1.05.022-1.061.001H8.334c-.628-.019-1.286.001-1.917.001-.639 0-1.281.006-1.92 0-.831-.007-1.796.011-2.545-.342l-.316-.16c-.022-.012-.266-.163-.284-.194-.061-.027-.059-.04-.106-.075l-.199-.174c-.03-.029-.06-.065-.091-.094-.051-.05-.3-.33-.317-.405-.05-.029-.036-.035-.084-.105-.022-.033-.047-.083-.074-.128-.087-.146-.333-.711-.32-.851l-.005-.009-.031-.107a4.806 4.806 0 0 1-.023-.136l-.018-.13-.014-.1c-.05-.349-.055-.844-.056-1.199 0-.194.012-.435-.004-.622V8.052c-.019-.268-.001-.608 0-.884l.001-.875C.012 5.706.01 5.119.012 4.532c.005-1.237.01-2.077.534-2.961.215-.362.537-.685.85-.912C2.25.041 3.207.003 4.259.003h5.282c.737 0 1.866-.025 2.583.061.698.084 1.371.346 1.848.79.083.078.16.139.231.22.288.332.521.66.667 1.096.03.09.072.212.102.336.057.24.095.499.115.755.019.238.031 1.511.015 1.734z"/></symbol><symbol viewBox="0 0 18.107 10.864" id="icons--vk" xmlns="http://www.w3.org/2000/svg"><path fill-rule="evenodd" clip-rule="evenodd" d="M5.998 1.207c1.322 0 1.245.016 1.245 1.508 0 .83-.065 2.078-.376 2.567-.442.694-1.793-1.75-2.022-2.13L3.72 1.335c-.15-.225-.458-.732-.777-.732H.717C.044.604.002.854 0 1.096v.073c0 .237.8 1.963 1.018 2.453.426.958 1.076 2.119 1.714 2.963.336.444.926 1.209 1.295 1.573.391.387.74.822 1.179 1.16.717.552.797.694 1.785 1.157.842.395 1.779.39 2.741.39.31 0 .466-.393.514-.693.062-.395-.114-1.226.826-1.626.521-.222.922.064 1.306.352l.658.549c.273.211.929.97 1.266 1.224.131.098.225.194.448.194h2.225c.276 0 .605-.188.772-.322.297-.241.36-.556.36-.923 0-.372-.618-1.142-.914-1.462l-.999-1.038c-.912-.878-1.598-.597-.339-2.28.627-.84 2.252-2.975 2.252-3.746 0-.29-.858-.477-1.097-.526-.814-.166-1.008-.191-1.846-.191-.636 0-.763.26-1.181.969-.075.127-.128.203-.207.321-.083.124-.134.219-.218.347-.713 1.086-.955 1.821-1.486 2.89-.337.679-.831.751-1.062.005-.105-.339-.194-1.447-.13-1.875.045-.297.021-1.532.021-1.94C10.902.695 10.705 0 10.261 0H8.299c-.577 0-1.456.393-1.857.746-.187.164-.324.234-.444.461"/></symbol><symbol style="position:absolute;width:0;height:0" overflow="hidden" viewBox="0 0 0 0" id="symbol-defs" xmlns="http://www.w3.org/2000/svg"/></svg>