<svg aria-hidden="true" style="position: absolute; width: 0; height: 0; overflow: hidden;" version="1.1" xmlns="http://www.w3.org/2000/svg" xmlns:xlink="http://www.w3.org/1999/xlink">
<defs>
<symbol id="icon-alcohol" viewBox="0 0 28 32">
<title>alcohol</title>
<path d="M24.253 19.059l-3.225 4.135c-0.124 0.165-0.124 0.372 0 0.537s0.289 0.289 0.455 0.455c0.537 0.455 1.24 0.661 1.902 0.661 0.124 0 0.248 0 0.372-0.041 0.827-0.083 1.571-0.496 2.067-1.157s0.744-1.447 0.661-2.274c-0.083-0.827-0.496-1.571-1.157-2.067-0.165-0.124-0.372-0.248-0.579-0.372-0.166-0.083-0.373 0-0.497 0.124zM25.659 21.499c0.083 0.62-0.083 1.199-0.496 1.654-0.372 0.496-0.909 0.785-1.53 0.827-0.62 0.083-1.199-0.083-1.654-0.496-0.041-0.041-0.083-0.041-0.083-0.083l2.811-3.555c0.041 0.041 0.083 0.083 0.124 0.083 0.455 0.413 0.786 0.951 0.827 1.571z"></path>
<path d="M24.419 24.661c-0.165-0.124-0.455-0.124-0.579 0.083-0.124 0.165-0.124 0.455 0.083 0.579l0.248 0.207c0.083 0.041 0.165 0.083 0.248 0.083 0.124 0 0.248-0.041 0.331-0.165 0.124-0.165 0.124-0.455-0.083-0.579l-0.248-0.207z"></path>
<path d="M23.302 25.157v0c-0.248 0-0.413 0.165-0.413 0.413v0.455c0 0.248 0.165 0.413 0.413 0.413v0c0.207 0 0.413-0.165 0.413-0.413v-0.455c0-0.207-0.165-0.413-0.413-0.413z"></path>
<path d="M24.129 24.124c0.041 0.207 0.207 0.331 0.413 0.331 0.041 0 0.083 0 0.083 0l0.413-0.083c0.207-0.041 0.372-0.289 0.289-0.496-0.041-0.207-0.289-0.372-0.496-0.289l-0.413 0.083c-0.207 0.041-0.331 0.248-0.289 0.455z"></path>
<path d="M23.964 13.85c-0.661-0.496-1.489-0.703-2.315-0.579s-1.53 0.579-2.026 1.24c-0.124 0.165-0.248 0.372-0.331 0.579-0.083 0.165-0.041 0.372 0.124 0.496l4.259 3.101c0.083 0.041 0.165 0.083 0.248 0.083s0.207-0.041 0.289-0.124c0.165-0.124 0.289-0.289 0.413-0.455 1.033-1.405 0.744-3.349-0.661-4.341zM23.964 17.695c-0.041 0.041-0.041 0.083-0.083 0.083l-3.679-2.646c0.041-0.041 0.041-0.083 0.083-0.124 0.372-0.496 0.868-0.827 1.489-0.909s1.199 0.041 1.695 0.413c1.033 0.744 1.24 2.149 0.496 3.183z"></path>
<path d="M23.22 15.587c0.124-0.165 0.083-0.455-0.083-0.579s-0.455-0.083-0.579 0.083l-0.165 0.248c-0.124 0.165-0.083 0.455 0.083 0.579 0.083 0.041 0.165 0.083 0.248 0.083 0.124 0 0.248-0.041 0.331-0.165l0.165-0.248z"></path>
<path d="M23.302 16c-0.248 0-0.413 0.207-0.413 0.413s0.207 0.413 0.413 0.413v0h0.455c0.248 0 0.413-0.207 0.413-0.413 0-0.248-0.207-0.413-0.413-0.413h-0.455z"></path>
<path d="M22.021 14.718c-0.083-0.207-0.289-0.331-0.496-0.289-0.207 0.083-0.331 0.289-0.289 0.496l0.124 0.413c0.041 0.165 0.207 0.289 0.413 0.289 0.041 0 0.083 0 0.124 0 0.207-0.083 0.331-0.289 0.289-0.496l-0.165-0.413z"></path>
<path d="M15.323 7.235c-0.041 0.124-0.041 0.289 0.041 0.413 0.041 0.041 2.729 3.762 2.646 8.021-0.207 7.153 1.861 10.956 6.036 11.452l0.744 3.555-2.315 0.496c-0.207 0.041-0.372 0.248-0.331 0.496 0.041 0.207 0.207 0.331 0.413 0.331 0.041 0 0.041 0 0.083 0l5.416-1.116c0.207-0.041 0.372-0.248 0.331-0.496-0.041-0.207-0.248-0.372-0.496-0.331l-2.274 0.413-0.744-3.514c3.721-2.109 4.093-6.449 1.033-12.941-1.778-3.845-0.785-8.351-0.785-8.393 0.041-0.124 0-0.289-0.124-0.372-0.083-0.083-0.248-0.124-0.372-0.124l-9.013 1.861c-0.124 0-0.248 0.124-0.289 0.248zM25.163 14.346c2.894 6.201 2.605 10.088-0.827 11.948-3.886-0.331-5.705-3.803-5.499-10.625 0.041-1.53-0.248-3.018-0.661-4.3l0.041-0.041c0.331-0.413 0.661-0.744 1.323-0.868s1.075 0.041 1.571 0.289c0.537 0.248 1.157 0.537 2.067 0.372 0.413-0.083 0.744-0.248 0.992-0.413 0.124 1.158 0.455 2.44 0.992 3.639zM24.212 6.036c-0.124 0.744-0.248 2.067-0.165 3.638-0.289 0.289-0.537 0.496-1.075 0.62-0.661 0.124-1.075-0.041-1.571-0.289-0.537-0.248-1.157-0.537-2.067-0.372-0.744 0.165-1.157 0.496-1.53 0.868-0.496-1.281-1.075-2.274-1.447-2.853l7.856-1.612z"></path>
<path d="M16.749 0c-0.248 0-0.413 0.165-0.413 0.413v2.439c0 0.248 0.165 0.413 0.413 0.413s0.413-0.165 0.413-0.413v-2.439c0-0.207-0.207-0.413-0.413-0.413z"></path>
<path d="M18.444 3.886c0.083 0 0.124 0 0.207-0.041l2.109-1.199c0.207-0.124 0.248-0.372 0.165-0.579s-0.372-0.248-0.579-0.165l-2.109 1.199c-0.207 0.124-0.248 0.372-0.165 0.579 0.083 0.124 0.248 0.207 0.372 0.207z"></path>
<path d="M0.563 26.253c-0.207-0.083-0.455 0.041-0.537 0.248s0.041 0.455 0.248 0.537l5.209 1.819c0.041 0 0.083 0.041 0.124 0.041 0.165 0 0.331-0.124 0.372-0.289 0.083-0.207-0.041-0.455-0.248-0.537l-2.233-0.786 1.24-3.514 2.026 0.703c0.124 0.041 0.289 0.083 0.413 0.083 0.455 0 0.827-0.248 0.992-0.62l7.235-18.398c0.041-0.124 0.041-0.289 0-0.413-0.083-0.165-0.207-0.248-0.331-0.331l-7.193-2.522c-0.165-0.041-0.331-0.041-0.455 0.041s-0.248 0.165-0.289 0.331l-5.871 18.853c-0.165 0.537 0.165 1.116 0.744 1.323l2.026 0.703-1.24 3.514-2.233-0.785zM7.881 3.183l6.697 2.357-0.62 1.571c-0.331-0.372-0.785-0.785-1.53-1.033-1.033-0.372-1.737-0.165-2.357-0.041-0.579 0.165-1.075 0.289-1.861 0-0.496-0.165-0.827-0.413-1.033-0.661l0.703-2.192zM2.052 21.747l4.879-15.504c0.248 0.207 0.579 0.413 1.033 0.579 1.033 0.372 1.737 0.165 2.357 0.041 0.579-0.165 1.075-0.289 1.861 0s1.075 0.661 1.447 1.157l-6.161 15.628c-0.041 0.083-0.207 0.124-0.372 0.083l-4.837-1.695c-0.165-0.041-0.248-0.207-0.207-0.289z"></path>
<path d="M8.212 11.617c-0.165 0.083-0.331 0.248-0.372 0.413-0.083 0.207-0.041 0.413 0.041 0.579l0.661 1.365c0.124 0.289 0.413 0.413 0.661 0.413 0.124 0 0.207-0.041 0.331-0.083l1.365-0.661c0.165-0.083 0.331-0.248 0.372-0.413 0.083-0.207 0.041-0.413-0.041-0.579l-0.62-1.323c-0.165-0.372-0.62-0.537-0.992-0.372l-1.406 0.661zM10.486 12.982l-1.24 0.579-0.579-1.24 1.24-0.579 0.579 1.24z"></path>
<path d="M7.302 16.661c0.331 0 0.661-0.248 0.744-0.62l0.289-1.489c0.083-0.413-0.165-0.785-0.579-0.868l-1.489-0.289c-0.207-0.041-0.413 0-0.579 0.124s-0.289 0.289-0.331 0.496l-0.289 1.489c-0.083 0.413 0.165 0.785 0.579 0.868l1.489 0.289c0.083-0.041 0.124 0 0.165 0zM6.186 14.181l1.365 0.289-0.289 1.365-1.365-0.289 0.289-1.365z"></path>
<path d="M7.509 10.832h0.041l1.53-0.083c0.413-0.041 0.744-0.372 0.703-0.785l-0.083-1.53c0-0.207-0.083-0.372-0.248-0.537-0.165-0.124-0.331-0.207-0.537-0.207l-1.53 0.083c-0.413 0.041-0.744 0.372-0.703 0.785l0.083 1.53c0.041 0.455 0.372 0.744 0.744 0.744zM8.915 8.558l0.083 1.365-1.365 0.083-0.083-1.365 1.365-0.083z"></path>
</symbol>
<symbol id="icon-arrow-bottom" viewBox="0 0 64 32">
<title>arrow-bottom</title>
<path d="M32 32l-32-32h64z"></path>
</symbol>
<symbol id="icon-arrow-left" viewBox="0 0 26 32">
<title>arrow-left</title>
<path d="M25.612 0h-15.038l-10.574 16 10.574 16h15.038l-10.574-16z"></path>
</symbol>
<symbol id="icon-arrow-right" viewBox="0 0 26 32">
<title>arrow-right</title>
<path d="M15.038 0h-15.038l10.574 16-10.574 16h15.038l10.574-16z"></path>
</symbol>
<symbol id="icon-celebration" viewBox="0 0 33 32">
<title>celebration</title>
<path d="M5.11 14.594c-0.067 0-0.132-0.032-0.172-0.086l-2.926-3.901c-0.062-0.083-0.16-0.132-0.263-0.132-0.004 0-0.088 0.003-0.088 0.003-0.475 0.019-0.966 0.039-1.446 0.039-0.119 0-0.215-0.097-0.215-0.215s0.096-0.215 0.215-0.215c5.467-0.009 10.98-1.226 15.942-3.521 0.036-0.016 0.065-0.023 0.096-0.023 0.085 0 0.162 0.050 0.196 0.127 0.049 0.108 0 0.236-0.108 0.284-0.532 0.247-1.069 0.471-1.57 0.676-0.11 0.045-0.187 0.146-0.202 0.263l-0.544 4.333c-0.009 0.078-0.059 0.144-0.129 0.174-0.027 0.011-0.054 0.017-0.083 0.017-0.047 0-0.093-0.015-0.13-0.043l-3.943-2.956c-0.057-0.043-0.127-0.066-0.197-0.066-0.027 0-0.053 0.003-0.080 0.010-0.634 0.158-1.283 0.302-1.928 0.428-0.105 0.021-0.194 0.091-0.238 0.189l-1.994 4.486c-0.031 0.070-0.097 0.118-0.172 0.127-0.007 0.001-0.015 0.001-0.023 0.001zM6.304 10.025c-0.017 0-0.035 0.001-0.052 0.004-1.012 0.163-2.067 0.284-3.224 0.37-0.12 0.009-0.225 0.082-0.275 0.192s-0.036 0.237 0.036 0.333l1.938 2.584c0.062 0.083 0.16 0.132 0.263 0.132 0.012 0 0.025-0.001 0.037-0.002 0.116-0.013 0.216-0.087 0.264-0.193l1.314-2.957c0.049-0.11 0.034-0.239-0.040-0.334-0.063-0.082-0.159-0.128-0.261-0.128zM13.743 8.054c-0.039 0-0.077 0.007-0.114 0.020-1.014 0.376-1.94 0.683-2.831 0.939-0.12 0.034-0.21 0.134-0.233 0.257s0.026 0.248 0.126 0.323l2.502 1.876c0.058 0.043 0.127 0.066 0.197 0.066 0.043 0 0.087-0.009 0.129-0.026 0.108-0.046 0.183-0.146 0.198-0.262l0.353-2.822c0.014-0.114-0.032-0.227-0.122-0.299-0.059-0.047-0.131-0.071-0.204-0.071z"></path>
<path d="M3.478 32c-0.057 0-0.111-0.022-0.152-0.063l-3.264-3.264c-0.040-0.040-0.063-0.095-0.063-0.152-0-0.058 0.022-0.111 0.063-0.152s0.094-0.063 0.152-0.063h3.038c0.087 0 0.171-0.035 0.233-0.096l2.889-2.89c0.111-0.111 0.128-0.286 0.040-0.417-0.674-0.998-0.546-2.341 0.306-3.193l4.916-4.916 3.567 3.567-4.916 4.914c-0.476 0.477-1.11 0.739-1.784 0.739v0c-0.504 0-0.992-0.149-1.41-0.432-0.056-0.038-0.12-0.056-0.184-0.056-0.085 0-0.169 0.033-0.233 0.096l-2.889 2.89c-0.062 0.062-0.096 0.145-0.096 0.233v3.039c0 0.056-0.023 0.112-0.063 0.152-0.041 0.041-0.095 0.063-0.152 0.063zM1.528 28.736c-0.133 0-0.253 0.080-0.304 0.203s-0.023 0.264 0.071 0.359l1.407 1.407c0.063 0.063 0.147 0.096 0.233 0.096 0.042 0 0.085-0.008 0.126-0.025 0.123-0.051 0.203-0.171 0.203-0.304v-1.407c0-0.182-0.147-0.329-0.329-0.329h-1.407zM6.756 23.297c-0.091 0-0.178 0.038-0.241 0.105s-0.094 0.157-0.087 0.248c0.036 0.502 0.252 0.973 0.608 1.329 0.394 0.393 0.917 0.609 1.473 0.609 0.558 0 1.083-0.218 1.477-0.613l1.115-1.115c0.094-0.094 0.122-0.236 0.071-0.359s-0.171-0.203-0.304-0.203h-4.112zM11.638 17.539c-0.084 0-0.168 0.032-0.233 0.096l-4.379 4.379c-0.105 0.106-0.198 0.223-0.277 0.347-0.065 0.101-0.069 0.23-0.012 0.335s0.168 0.171 0.289 0.171h4.931c0.087 0 0.171-0.035 0.233-0.096l2.176-2.176c0.128-0.128 0.128-0.337 0-0.465l-2.494-2.495c-0.064-0.064-0.148-0.096-0.233-0.096z"></path>
<path d="M29.044 32c-0.119 0-0.215-0.096-0.215-0.215v-3.039c0-0.087-0.035-0.171-0.096-0.233l-2.891-2.89c-0.064-0.064-0.148-0.096-0.233-0.096-0.064 0-0.128 0.019-0.184 0.056-0.418 0.283-0.906 0.432-1.41 0.432-0.674 0-1.308-0.263-1.784-0.739l-4.914-4.914 3.568-3.568 4.915 4.915c0.852 0.852 0.981 2.195 0.307 3.194-0.088 0.131-0.072 0.305 0.040 0.417l2.89 2.889c0.062 0.062 0.145 0.096 0.233 0.096h3.039c0.087 0 0.165 0.052 0.199 0.133s0.015 0.172-0.047 0.234l-3.264 3.264c-0.040 0.040-0.095 0.063-0.152 0.063zM29.588 28.736c-0.182 0-0.329 0.147-0.329 0.329v1.407c0 0.133 0.080 0.253 0.203 0.304 0.041 0.017 0.083 0.025 0.126 0.025 0.086 0 0.17-0.033 0.233-0.096l1.407-1.407c0.094-0.094 0.122-0.235 0.071-0.358s-0.171-0.203-0.304-0.203h-1.406zM22.536 24.974c0.395 0.395 0.92 0.613 1.478 0.613 0.166 0 0.331-0.020 0.492-0.059 1.12-0.271 1.81-1.403 1.539-2.523-0.036-0.148-0.168-0.252-0.32-0.252h-4.616c-0.133 0-0.253 0.080-0.304 0.203s-0.023 0.264 0.071 0.359l1.648 1.647c0.004 0.004 0.007 0.008 0.011 0.012zM20.885 17.539c-0.087 0-0.171 0.035-0.233 0.096l-2.495 2.495c-0.128 0.128-0.128 0.337 0 0.465l1.632 1.632c0.062 0.062 0.145 0.096 0.233 0.096h4.989c0.133 0 0.253-0.080 0.304-0.203s0.023-0.264-0.071-0.358l-4.126-4.126c-0.062-0.062-0.145-0.097-0.233-0.097z"></path>
<path d="M27.957 9.7c-0.075 0-0.144-0.038-0.183-0.102l-2.56-4.097c-0.060-0.096-0.166-0.155-0.279-0.155h-0.054c-0.456 0-0.939-0.013-1.52-0.040-0.005-0-0.010-0-0.015-0-0.096 0-0.187 0.042-0.25 0.115l-3.135 3.658c-0.041 0.048-0.1 0.075-0.163 0.075-0.014 0-0.027-0.001-0.040-0.003-0.074-0.013-0.136-0.065-0.163-0.136l-1.598-4.261c-0.039-0.104-0.128-0.181-0.236-0.205-0.904-0.204-1.81-0.45-2.692-0.732-0.033-0.010-0.067-0.016-0.1-0.016-0.070 0-0.14 0.023-0.197 0.066l-4.092 3.070c-0.037 0.028-0.083 0.043-0.129 0.043-0.119 0-0.215-0.097-0.215-0.215v-4.688c0-0.123-0.069-0.236-0.179-0.292-0.86-0.442-1.682-0.908-2.44-1.385-0.101-0.063-0.131-0.196-0.068-0.297 0.040-0.063 0.108-0.101 0.183-0.101 0.040 0 0.080 0.011 0.114 0.033 5.075 3.195 10.928 4.884 16.925 4.884h6.894c0.119 0 0.215 0.097 0.215 0.215s-0.096 0.215-0.215 0.215h-0.787c-0.113 0-0.219 0.058-0.279 0.155l-2.558 4.096c-0.018 0.029-0.042 0.053-0.070 0.070-0.035 0.021-0.072 0.032-0.113 0.032zM26.215 5.347c-0.12 0-0.23 0.065-0.288 0.17s-0.054 0.232 0.009 0.334l1.741 2.781c0.060 0.096 0.166 0.154 0.279 0.154s0.219-0.058 0.279-0.154l1.741-2.781c0.063-0.101 0.067-0.229 0.009-0.334s-0.168-0.17-0.288-0.17h-3.481zM18.949 4.803c-0.096 0-0.189 0.042-0.252 0.118-0.076 0.091-0.098 0.216-0.056 0.327l1.034 2.755c0.041 0.109 0.136 0.188 0.251 0.208 0.019 0.003 0.038 0.005 0.057 0.005 0.095 0 0.187-0.041 0.25-0.115l2.009-2.341c0.080-0.094 0.102-0.224 0.055-0.338s-0.153-0.193-0.276-0.204c-1.008-0.089-2.021-0.226-3.012-0.41-0.020-0.004-0.040-0.005-0.060-0.005zM11.094 2.28c-0.062 0-0.123 0.017-0.177 0.051-0.095 0.060-0.152 0.165-0.152 0.277v3.067c0 0.125 0.070 0.239 0.182 0.294 0.047 0.023 0.097 0.035 0.147 0.035 0.070 0 0.139-0.022 0.197-0.066l2.628-1.971c0.097-0.072 0.146-0.192 0.128-0.311s-0.099-0.22-0.213-0.261c-0.841-0.307-1.716-0.672-2.601-1.085-0.044-0.021-0.092-0.031-0.139-0.031z"></path>
<path d="M15.989 15.791c-0.119 0-0.215-0.097-0.215-0.215v-1.632c0-0.119 0.096-0.215 0.215-0.215s0.215 0.097 0.215 0.215v1.632c0 0.118-0.096 0.215-0.215 0.215z"></path>
<path d="M14.357 16.226c-0.077 0-0.148-0.041-0.186-0.107l-0.816-1.414c-0.061-0.107-0.025-0.239 0.078-0.298 0.033-0.019 0.068-0.028 0.106-0.028 0.078 0 0.149 0.042 0.188 0.109l0.817 1.416c0.019 0.033 0.029 0.070 0.029 0.107 0 0.118-0.096 0.215-0.215 0.215h-0.001z"></path>
<path d="M13.539 25.258c-0.038 0-0.075-0.010-0.108-0.030-0.050-0.029-0.085-0.076-0.099-0.131s-0.006-0.114 0.023-0.163l0.817-1.416c0.038-0.065 0.107-0.104 0.185-0.104 0.037 0 0.073 0.009 0.106 0.028 0.050 0.028 0.086 0.075 0.101 0.13s0.008 0.113-0.020 0.163c0 0-0.82 1.422-0.821 1.423-0.035 0.060-0.105 0.1-0.182 0.1v0z"></path>
<path d="M15.989 25.908c-0.119 0-0.215-0.096-0.215-0.215v-1.632c0-0.119 0.096-0.215 0.215-0.215s0.215 0.096 0.215 0.215v1.632c0 0.119-0.096 0.215-0.215 0.215z"></path>
<path d="M18.436 25.252c-0.077 0-0.147-0.040-0.186-0.106l-0.815-1.412c-0.061-0.108-0.025-0.239 0.078-0.298 0.033-0.019 0.068-0.028 0.106-0.028 0.077 0 0.149 0.042 0.187 0.109l0.817 1.416c0.057 0.1 0.022 0.231-0.079 0.29-0.033 0.020-0.070 0.030-0.108 0.030v0z"></path>
<path d="M17.619 16.229c-0.038 0-0.075-0.010-0.108-0.030-0.102-0.060-0.136-0.192-0.077-0.294 0 0 0.821-1.424 0.823-1.427 0.035-0.060 0.105-0.1 0.182-0.1 0.038 0 0.075 0.010 0.108 0.030 0.049 0.029 0.085 0.076 0.099 0.131s0.006 0.113-0.023 0.163c0 0-0.821 1.424-0.823 1.427-0.035 0.060-0.105 0.1-0.182 0.1v0z"></path>
<path d="M23.061 30.912c-0.718 0-1.303-0.584-1.303-1.303s0.584-1.303 1.303-1.303 1.303 0.584 1.303 1.303-0.584 1.303-1.303 1.303zM23.061 28.736c-0.481 0-0.873 0.392-0.873 0.873s0.392 0.873 0.873 0.873 0.873-0.392 0.873-0.873c0-0.481-0.392-0.873-0.873-0.873z"></path>
<path d="M5.11 18.945c-0.718 0-1.303-0.584-1.303-1.303s0.584-1.303 1.303-1.303 1.303 0.584 1.303 1.303-0.584 1.303-1.303 1.303zM5.11 16.77c-0.481 0-0.873 0.392-0.873 0.873s0.392 0.873 0.873 0.873 0.873-0.392 0.873-0.873-0.392-0.873-0.873-0.873z"></path>
<path d="M23.603 12.962c-0.161 0-0.315-0.050-0.445-0.145-0.164-0.119-0.272-0.295-0.303-0.495s0.017-0.401 0.136-0.565c0.142-0.196 0.372-0.313 0.615-0.313 0.161 0 0.315 0.050 0.445 0.145 0.162 0.117 0.273 0.298 0.303 0.495 0.032 0.201-0.017 0.401-0.136 0.565-0.142 0.196-0.372 0.313-0.615 0.313v0z"></path>
<path d="M11.093 29.065c-0.161 0-0.315-0.050-0.445-0.145-0.164-0.119-0.272-0.295-0.303-0.495s0.017-0.401 0.136-0.565c0.142-0.196 0.372-0.313 0.615-0.313 0.161 0 0.315 0.050 0.445 0.145 0.162 0.117 0.273 0.298 0.303 0.495 0.032 0.201-0.017 0.401-0.136 0.565-0.142 0.196-0.372 0.313-0.615 0.313v0z"></path>
<path d="M28.5 18.402c-0.119 0-0.215-0.096-0.215-0.215v-0.544c0-0.119 0.096-0.215 0.215-0.215s0.215 0.096 0.215 0.215v0.544c0 0.118-0.097 0.215-0.215 0.215z"></path>
<path d="M28.5 15.682c-0.119 0-0.215-0.097-0.215-0.215v-0.544c0-0.119 0.096-0.215 0.215-0.215s0.215 0.097 0.215 0.215v0.544c0 0.118-0.097 0.215-0.215 0.215z"></path>
<path d="M29.588 16.77c-0.119 0-0.215-0.096-0.215-0.215s0.096-0.215 0.215-0.215h0.544c0.119 0 0.215 0.096 0.215 0.215s-0.096 0.215-0.215 0.215h-0.544z"></path>
<path d="M26.868 16.77c-0.119 0-0.215-0.096-0.215-0.215s0.096-0.215 0.215-0.215h0.544c0.119 0 0.215 0.096 0.215 0.215s-0.096 0.215-0.215 0.215h-0.544z"></path>
<path d="M17.621 32c-0.119 0-0.215-0.096-0.215-0.215v-0.544c0-0.119 0.096-0.215 0.215-0.215s0.215 0.096 0.215 0.215v0.544c-0 0.119-0.097 0.215-0.215 0.215z"></path>
<path d="M17.621 29.28c-0.119 0-0.215-0.096-0.215-0.215v-0.544c0-0.119 0.096-0.215 0.215-0.215s0.215 0.096 0.215 0.215v0.544c-0 0.118-0.097 0.215-0.215 0.215z"></path>
<path d="M18.709 30.368c-0.119 0-0.215-0.096-0.215-0.215s0.096-0.215 0.215-0.215h0.544c0.119 0 0.215 0.096 0.215 0.215s-0.096 0.215-0.215 0.215h-0.544z"></path>
<path d="M15.989 30.368c-0.119 0-0.215-0.096-0.215-0.215s0.096-0.215 0.215-0.215h0.544c0.119 0 0.215 0.096 0.215 0.215s-0.096 0.215-0.215 0.215h-0.544z"></path>
</symbol>
<symbol id="icon-dish" viewBox="0 0 32 32">
<title>dish</title>
<path d="M31.024 30.927h-0.852c-0.304-7.138-5.733-12.962-12.8-13.804 0.564-0.538 0.919-1.293 0.919-2.131 0-1.628-1.325-2.955-2.955-2.955s-2.955 1.325-2.955 2.955c0 0.88 0.394 1.664 1.007 2.205-6.84 1.064-11.954 6.765-12.248 13.73h-0.604c-0.297 0-0.536 0.24-0.536 0.537s0.241 0.537 0.536 0.537h30.489c0.297 0 0.537-0.24 0.537-0.537s-0.241-0.537-0.538-0.537zM15.336 13.11c1.037 0 1.881 0.844 1.881 1.882s-0.844 1.882-1.881 1.882-1.881-0.844-1.881-1.882 0.843-1.882 1.881-1.882zM14.388 18.138l1.899-0.043c6.975 0.322 12.495 5.91 12.812 12.833h-26.884c0.304-6.724 5.457-12.18 12.173-12.79z"></path>
<path d="M12.019 20.499c-2.17 0.698-3.914 1.777-5.183 3.21-1.226 1.387-2.050 3.15-2.448 5.241-0.057 0.291 0.136 0.572 0.425 0.628 0.034 0.007 0.068 0.009 0.1 0.009 0.252 0 0.477-0.178 0.527-0.436 0.363-1.899 1.102-3.491 2.2-4.73 1.139-1.285 2.723-2.262 4.707-2.899 0.283-0.091 0.437-0.393 0.347-0.675-0.093-0.284-0.398-0.442-0.676-0.349z"></path>
<path d="M16.613 0.409c-0.068-0.284-0.357-0.462-0.638-0.394-0.287 0.064-0.468 0.352-0.408 0.638 0.004 0.016 0.31 1.591-1.278 4.751-1.516 3.018 0.545 5.576 0.633 5.683 0.106 0.129 0.259 0.196 0.416 0.196 0.119 0 0.242-0.040 0.341-0.122 0.228-0.189 0.26-0.527 0.074-0.755-0.071-0.086-1.708-2.12-0.503-4.519 1.79-3.567 1.382-5.401 1.363-5.478z"></path>
<path d="M21.021 1.003c-0.067-0.286-0.347-0.46-0.638-0.396-0.286 0.064-0.467 0.35-0.407 0.637 0.004 0.016 0.309 1.592-1.278 4.753-1.539 3.067 0.619 5.665 0.641 5.692 0.106 0.125 0.255 0.189 0.408 0.189 0.122 0 0.246-0.042 0.346-0.126 0.227-0.191 0.255-0.528 0.067-0.755-0.071-0.085-1.713-2.102-0.502-4.517 1.79-3.567 1.382-5.401 1.363-5.477z"></path>
<path d="M12.632 2.191c-0.067-0.286-0.357-0.46-0.638-0.396-0.286 0.064-0.467 0.35-0.407 0.638 0.004 0.015 0.309 1.591-1.277 4.751-1.54 3.065 0.617 5.665 0.64 5.69 0.106 0.125 0.255 0.189 0.408 0.189 0.122 0 0.246-0.042 0.346-0.126 0.227-0.191 0.255-0.528 0.067-0.755-0.072-0.085-1.715-2.102-0.502-4.517 1.789-3.565 1.382-5.399 1.363-5.475z"></path>
</symbol>
<symbol id="icon-fb" viewBox="0 0 32 32">
<title>fb</title>
<path d="M32 5.462v21.055c0 3.027-2.454 5.48-5.462 5.48h-4.577v-12.289h4.115l0.626-4.78h-4.741v-3.061c0-1.384 0.388-2.324 2.361-2.324h2.546v-4.284c-0.444-0.055-1.938-0.185-3.69-0.185-3.653 0-6.164 2.216-6.164 6.312v3.542h-4.133v4.78h4.133v12.289h-11.534c-3.027 0.002-5.48-2.454-5.48-5.478v-21.058c0-3.008 2.454-5.462 5.48-5.462h21.055c3.008 0 5.464 2.454 5.464 5.462z"></path>
</symbol>
<symbol id="icon-glass" viewBox="0 0 23 32">
<title>glass</title>
<path d="M16.636 5.015v-4.583c0-0.238-0.203-0.432-0.452-0.432h-9.991c-0.25 0-0.452 0.193-0.452 0.432v4.583c0 2.686 2.145 4.903 4.885 5.173-0.001 0.009-0.003 0.018-0.003 0.028v4.182c0 0.065 0.014 0.127 0.036 0.185-3.4 0.043-3.402 0.5-3.402 0.678 0 0.186 0 0.682 3.931 0.682s3.931-0.496 3.931-0.682c0-0.178-0.003-0.635-3.402-0.678 0.022-0.059 0.036-0.12 0.036-0.185v-4.182c0-0.010-0.003-0.019-0.003-0.028 2.741-0.269 4.886-2.487 4.886-5.173zM15.731 0.863v2.397c-0.747-0.222-2.365-0.512-4.657 0.143-2.433 0.697-4.021 0.22-4.429 0.067v-2.608h9.086zM11.188 9.352c-2.505 0-4.543-1.946-4.543-4.337v-0.742c0.403 0.12 1.059 0.259 1.938 0.259 0.751 0 1.664-0.102 2.718-0.403 2.434-0.697 4.024-0.219 4.43-0.067v0.954c0 2.391-2.038 4.337-4.543 4.337z"></path>
<path d="M14.837 4.382c-0.188 0-0.339 0.145-0.339 0.324 0 1.861-1.586 3.375-3.536 3.375-0.188 0-0.339 0.145-0.339 0.324s0.152 0.324 0.339 0.324c2.324 0 4.214-1.805 4.214-4.022 0-0.179-0.152-0.324-0.339-0.324z"></path>
<path d="M23.088 21.071v-4.583c0-0.238-0.203-0.432-0.452-0.432h-9.991c-0.25 0-0.452 0.193-0.452 0.432v4.583c0 2.686 2.145 4.903 4.885 5.173-0.001 0.009-0.003 0.018-0.003 0.028v4.182c0 0.065 0.014 0.127 0.036 0.185-3.4 0.043-3.402 0.5-3.402 0.678 0 0.186 0 0.682 3.931 0.682s3.931-0.496 3.931-0.682c0-0.178-0.003-0.635-3.402-0.678 0.022-0.059 0.036-0.12 0.036-0.185v-4.182c0-0.010-0.003-0.019-0.003-0.028 2.741-0.269 4.886-2.487 4.886-5.173zM22.183 16.92v2.397c-0.747-0.222-2.365-0.512-4.657 0.143-2.433 0.697-4.021 0.22-4.43 0.067v-2.608h9.086zM17.64 25.409c-2.505 0-4.543-1.946-4.543-4.337v-0.742c0.403 0.12 1.059 0.259 1.938 0.259 0.751 0 1.664-0.102 2.718-0.403 2.434-0.697 4.024-0.219 4.43-0.067v0.954c0 2.391-2.038 4.337-4.543 4.337z"></path>
<path d="M21.289 20.439c-0.188 0-0.339 0.145-0.339 0.324 0 1.861-1.586 3.375-3.536 3.375-0.188 0-0.339 0.145-0.339 0.324s0.152 0.324 0.339 0.324c2.324 0 4.214-1.805 4.214-4.022 0-0.179-0.152-0.324-0.339-0.324z"></path>
<path d="M10.896 21.071v-4.583c0-0.238-0.203-0.432-0.452-0.432h-9.991c-0.25 0-0.452 0.193-0.452 0.432v4.583c0 2.686 2.145 4.903 4.885 5.173-0.001 0.009-0.003 0.018-0.003 0.028v4.182c0 0.065 0.014 0.127 0.036 0.185-3.4 0.043-3.402 0.5-3.402 0.678 0 0.186 0 0.682 3.931 0.682s3.931-0.496 3.931-0.682c0-0.178-0.003-0.635-3.402-0.678 0.022-0.059 0.036-0.12 0.036-0.185v-4.182c0-0.010-0.003-0.019-0.003-0.028 2.741-0.269 4.886-2.487 4.886-5.173zM9.991 16.92v2.397c-0.747-0.222-2.365-0.512-4.657 0.143-2.433 0.697-4.021 0.22-4.429 0.067v-2.608h9.086zM5.448 25.409c-2.505 0-4.543-1.946-4.543-4.337v-0.742c0.403 0.12 1.059 0.259 1.938 0.259 0.751 0 1.664-0.102 2.718-0.403 2.434-0.697 4.024-0.219 4.429-0.067v0.954c0 2.391-2.038 4.337-4.543 4.337z"></path>
<path d="M9.096 20.439c-0.188 0-0.339 0.145-0.339 0.324 0 1.861-1.586 3.375-3.536 3.375-0.188 0-0.339 0.145-0.339 0.324s0.152 0.324 0.339 0.324c2.324 0 4.214-1.805 4.214-4.022 0-0.179-0.152-0.324-0.339-0.324z"></path>
</symbol>
<symbol id="icon-hook" viewBox="0 0 17 32">
<title>hook</title>
<path d="M16.129 24.527c0.881-1.107 0.811-2.728-0.213-3.751-1.093-1.092-2.862-1.099-3.964-0.024-0.009 0.007-0.019 0.014-0.026 0.022-0.815 0.815-2.14 0.815-2.956 0-0.394-0.395-0.612-0.92-0.612-1.477s0.217-1.083 0.612-1.478c0.003-0.002 0.004-0.005 0.007-0.008l2.341-2.341c1.1-1.1 1.101-2.891 0.001-3.991-0.533-0.533-1.242-0.826-1.996-0.826-0.722 0-1.4 0.272-1.924 0.762l-0.074-0.074c-0.143-0.144-0.375-0.144-0.518 0s-0.143 0.374 0 0.518l0.044 0.043-1.164 1.164c-0.154-0.163-0.336-0.302-0.539-0.408v-2.936h1.673c0.724 0 1.314-0.589 1.314-1.314s-0.589-1.314-1.314-1.314h-1.192c-0.020-0.003-0.041-0.006-0.062-0.006h-0.174c-0.106-0.25-0.257-0.736-0.157-1.309h0.021c0.086 0 0.164-0.031 0.227-0.080 0.343-0.148 0.585-0.49 0.585-0.887 0-0.532-0.433-0.965-0.965-0.965h-1.827c-0.532 0-0.965 0.433-0.965 0.965 0 0.487 0.362 0.89 0.83 0.956 0.104 0.578-0.049 1.069-0.155 1.321h-0.010c-0.021 0-0.042 0.003-0.062 0.006h-1.357c-0.725 0-1.314 0.59-1.314 1.314s0.589 1.314 1.314 1.314h1.673v2.936c-0.672 0.353-1.109 1.059-1.109 1.83s0.436 1.476 1.109 1.83v3.385c-0.672 0.353-1.109 1.059-1.109 1.83 0 0.23 0.040 0.459 0.116 0.677-1.371 0.719-2.239 2.137-2.239 3.708 0 1.434 0.725 2.702 1.827 3.458h-0.268c-0.724 0-1.314 0.59-1.314 1.314s0.589 1.314 1.314 1.314h5.263c0.725 0 1.314-0.59 1.314-1.314s-0.589-1.314-1.314-1.314h-0.27c1.102-0.756 1.827-2.024 1.827-3.458 0-1.571-0.868-2.988-2.239-3.709 0.076-0.217 0.116-0.446 0.116-0.676 0-0.771-0.436-1.477-1.109-1.83v-3.385c0.673-0.353 1.109-1.059 1.109-1.83 0-0.278-0.058-0.546-0.161-0.794l1.273-1.273 0.031 0.031c0.071 0.071 0.165 0.107 0.258 0.107s0.188-0.036 0.259-0.107c0.143-0.143 0.143-0.375 0-0.518h-0c0.386-0.352 0.881-0.547 1.406-0.547 0.558 0 1.083 0.217 1.478 0.612 0.815 0.815 0.815 2.14 0 2.956l-2.35 2.349c-0.005 0.005-0.008 0.011-0.013 0.016-0.523 0.531-0.812 1.233-0.812 1.98 0 0.754 0.294 1.463 0.826 1.996 0.55 0.55 1.273 0.825 1.996 0.825 0.712 0 1.422-0.268 1.969-0.801 0.009-0.008 0.019-0.014 0.027-0.022 0.815-0.815 2.14-0.815 2.955 0 0.737 0.737 0.805 1.893 0.207 2.709l-0.050-0.050c-0.143-0.143-0.375-0.143-0.518 0s-0.143 0.375 0 0.517l0.069 0.070-0.966 0.965c-0.144 0.144-0.144 0.375 0 0.518 0.072 0.071 0.165 0.107 0.259 0.107 0.093 0 0.187-0.036 0.258-0.107l0.966-0.966 0.005 0.005c0.071 0.072 0.165 0.107 0.258 0.107s0.187-0.035 0.259-0.107c0.143-0.143 0.143-0.374 0-0.517l-0.018-0.018zM3.963 12.498v-2.776h0.452v2.776h-0.452zM3.276 4.576h1.827c0.129 0 0.233 0.105 0.233 0.233s-0.105 0.233-0.233 0.233h-1.827c-0.129 0-0.233-0.105-0.233-0.233s0.104-0.233 0.233-0.233zM3.884 5.776h0.611c-0.069 0.521 0.014 0.977 0.118 1.309h-0.847c0.103-0.332 0.186-0.788 0.118-1.309zM0.976 8.405c0-0.32 0.261-0.581 0.581-0.581h5.263c0.321 0 0.581 0.261 0.581 0.581s-0.261 0.581-0.581 0.581h-5.263c-0.321 0-0.581-0.261-0.581-0.581zM4.415 16.469v3.030h-0.452v-3.030h0.452zM6.822 30.104c0.32 0 0.581 0.261 0.581 0.581s-0.261 0.581-0.581 0.581h-5.263c-0.32 0-0.581-0.261-0.581-0.581s0.261-0.581 0.581-0.581h5.263zM7.647 25.914c0 1.907-1.552 3.458-3.458 3.458s-3.458-1.551-3.458-3.458c0-1.355 0.784-2.57 2.006-3.136h2.904c1.222 0.566 2.006 1.781 2.006 3.136zM5.524 21.529c0 0.176-0.037 0.352-0.107 0.516h-2.456c-0.070-0.164-0.107-0.34-0.107-0.516 0-0.554 0.35-1.056 0.87-1.25 0.032-0.012 0.061-0.029 0.088-0.047h0.755c0.026 0.019 0.055 0.035 0.087 0.047 0.52 0.193 0.87 0.696 0.87 1.25zM4.654 15.734c-0.001 0-0.003 0.001-0.004 0.002h-0.921c-0.001-0-0.003-0.001-0.004-0.002-0.52-0.194-0.87-0.696-0.87-1.25s0.35-1.056 0.87-1.249c0.004-0.002 0.007-0.003 0.011-0.005h0.907c0.004 0.002 0.007 0.004 0.011 0.005 0.521 0.193 0.87 0.695 0.87 1.249s-0.35 1.057-0.871 1.25z"></path>
<path d="M4.592 27.397c-1.088 0-1.973-0.885-1.973-1.973 0-0.202-0.164-0.366-0.366-0.366s-0.366 0.164-0.366 0.366c0 1.492 1.214 2.705 2.705 2.705 0.202 0 0.366-0.164 0.366-0.366s-0.164-0.366-0.367-0.366z"></path>
<path d="M3.398 1.441c-0.18 0.311-0.427 0.736-0.056 1.351 0.055 0.091 0.152 0.141 0.251 0.141 0.051 0 0.104-0.014 0.151-0.042 0.138-0.084 0.183-0.264 0.099-0.402-0.192-0.317-0.107-0.463 0.061-0.754 0.024-0.042 0.049-0.084 0.073-0.127 0.318-0.58 0.146-0.971-0.13-1.459-0.080-0.141-0.259-0.19-0.4-0.11s-0.19 0.258-0.11 0.4c0.248 0.438 0.293 0.583 0.126 0.888-0.022 0.039-0.043 0.077-0.066 0.115z"></path>
<path d="M4.55 1.795c-0.124 0.215-0.313 0.539-0.036 0.997 0.055 0.091 0.152 0.141 0.251 0.141 0.051 0 0.104-0.014 0.151-0.042 0.139-0.084 0.183-0.264 0.1-0.402-0.098-0.161-0.065-0.217 0.041-0.401 0.016-0.029 0.033-0.057 0.050-0.087 0.254-0.462 0.073-0.783-0.087-1.065-0.080-0.141-0.259-0.19-0.399-0.111-0.142 0.080-0.191 0.259-0.111 0.4 0.16 0.282 0.169 0.337 0.083 0.494-0.013 0.025-0.028 0.050-0.043 0.075z"></path>
</symbol>
<symbol id="icon-inst" viewBox="0 0 32 32">
<title>inst</title>
<path d="M15.255 12.101c1.195-0.216 2.304 0.083 3.217 0.793 0.212 0.165 0.269 0.25 0.269 0.25 0-0.004 0.006 0.008 0.008 0.013 0.1 0.047 0.036 0.006 0.112 0.081l0.523 0.68c0.623 1.094 0.769 2.145 0.369 3.385-0.555 1.708-2.306 2.857-4.275 2.63-0.466-0.055-0.729-0.159-1.098-0.307-1.267-0.509-2.194-1.829-2.34-3.236-0.070-0.668 0.032-1.244 0.25-1.833l0.184-0.409c0.047-0.055 0.019-0.025 0.066-0.064 0.028-0.324 0.805-1.060 1.075-1.263 0.428-0.322 0.986-0.6 1.638-0.718zM15.844 9.914c-0.697 0.023-1.322 0.148-1.916 0.356-1.111 0.388-1.873 1.022-2.632 1.854l-0.248 0.314c-0.214 0.28-0.589 1.022-0.617 1.053-0.064 0.242-0.18 0.449-0.252 0.693-0.072 0.248-0.117 0.47-0.172 0.729-0.259 1.202-0.034 2.711 0.523 3.792 0.053 0.102 0.299 0.517 0.309 0.568l0.54 0.687c0.447 0.511 0.725 0.742 1.28 1.132 1.060 0.744 2.488 1.062 3.813 0.973 0.401-0.025 0.704-0.125 1.055-0.167 0.153-0.070 0.443-0.123 0.623-0.195 0.636-0.25 1.123-0.521 1.655-0.954 0.407-0.331 0.964-0.896 1.238-1.342l0.439-0.746 0.008-0.019c0.61-1.267 0.74-2.687 0.428-4.059-0.123-0.536-0.295-0.831-0.46-1.306 0 0-0.392-0.651-0.424-0.701-0.142-0.223-0.312-0.418-0.496-0.627-0.386-0.439-0.727-0.706-1.206-1.041-0.833-0.583-2.196-1.038-3.491-0.994zM23.743 9.524c-0.076-0.708-0.755-1.361-1.545-1.259-0.839 0.106-1.382 0.844-1.28 1.556 0.278 1.918 3.018 1.507 2.825-0.297zM19.941 6.29c1.674 0.038 3.34 0.136 4.531 1.42 0.708 0.765 1.030 1.659 1.164 2.766 0.040 0.333 0.131 1.6 0.074 1.888 0.095 0.155 0.042 3.931 0.042 4.453-0.002 1.467 0.021 2.978-0.089 4.432-0.146 1.929-0.943 3.346-2.706 4.052-0.337 0.136-1.545 0.42-1.918 0.343-0.006 0.004-0.017 0-0.019 0.008-0.019 0.040-1.216 0.066-1.246 0.068-1.331 0.049-2.656-0.013-3.957 0.025-1.433 0.047-3.003-0.006-4.432-0.064-0.727-0.030-1.329-0.083-1.977-0.269-0.322-0.093-0.528-0.182-0.812-0.312-0.195-0.089-0.568-0.309-0.676-0.462-0.216-0.134-0.61-0.564-0.752-0.776-0.22-0.328-0.388-0.651-0.523-1.049-0.278-0.814-0.362-1.84-0.362-2.776 0.015-0.882-0.136-7.469 0.004-7.708-0.049-0.235 0.059-1.662 0.081-1.905 0.049-0.498 0.216-1.161 0.403-1.564 1.030-2.234 2.942-2.539 5.345-2.573 2.535-0.038 5.281-0.057 7.827 0.002zM25.178 5.517c-1.172-0.846-2.465-1.193-4.201-1.306-1.755-0.112-3.613-0.081-5.385-0.078-0.918 0-1.835 0.002-2.751 0.017-0.803 0.015-1.821 0.013-2.603 0.125-0.854 0.125-1.471 0.256-2.196 0.555-0.534 0.218-0.858 0.424-1.306 0.746l-0.369 0.305c-0.381 0.367-0.672 0.661-0.975 1.102-0.055 0.083-0.076 0.119-0.131 0.201-0.375 0.543-0.729 1.564-0.865 2.202-0.263 1.253-0.307 3.847-0.278 5.186 0.021 0.922 0 1.878 0 2.804 0 0.468 0.002 0.911 0.008 1.375 0.004 0.284 0.053 1.195 0.006 1.403 0.042 0.068 0.036 0.208 0.040 0.307 0.047 1.428 0.193 2.581 0.814 3.87 0.070 0.146 0.214 0.356 0.237 0.477 0.066 0.044 0.072 0.049 0.119 0.125l0.301 0.426c0.095 0.102 0.125 0.17 0.216 0.261l0.473 0.481c0.076 0.076 0.172 0.134 0.263 0.216 0.159 0.146 0.411 0.273 0.526 0.403 0.144 0.044 0.254 0.131 0.384 0.201 0.123 0.066 0.244 0.119 0.381 0.182 2.24 1.019 4.838 0.653 7.206 0.765l4.088-0.015c0.504 0.006 1.089-0.028 1.63-0.053 0.256-0.013 0.528-0.030 0.784-0.055 0.246-0.023 0.498-0.089 0.746-0.104 0.831-0.182 1.028-0.225 1.827-0.568 0.53-0.227 1.108-0.623 1.471-0.969l0.303-0.284c0.066-0.074 0.076-0.108 0.14-0.172 0.059-0.061 0.089-0.081 0.15-0.157 0.405-0.492 0.67-0.882 0.918-1.496 0.256-0.627 0.445-1.219 0.534-1.91 0.15-1.174 0.167-2.278 0.182-3.45 0.019-1.611-0.032-3.251 0.006-4.855 0.002-1.717-0.002-3.499-0.447-5.042-0.292-1.009-0.655-1.541-1.204-2.249l-1.045-0.975zM32.006 10.586c-0.042 0.576-0.004 2.806-0.004 3.563 0 1.187 0 2.376 0 3.563 0 1.189-0.002 2.378 0 3.567 0.002 1.157 0.036 2.389-0.019 3.531-0.076 1.545-0.483 3.19-1.422 4.366l-0.634 0.712c-0.674 0.678-0.863 0.708-1.515 1.149-0.148 0.1-0.428 0.206-0.606 0.292-0.606 0.297-2.174 0.638-2.969 0.615l-2.225 0.047-4.949 0.002c-1.331-0.040-2.725 0.002-4.063 0.002-1.354 0-2.715 0.013-4.069 0-1.761-0.015-3.806 0.023-5.394-0.725l-0.67-0.339c-0.047-0.025-0.564-0.345-0.602-0.411-0.129-0.057-0.125-0.085-0.225-0.159l-0.422-0.369c-0.064-0.061-0.127-0.138-0.193-0.199-0.108-0.106-0.636-0.699-0.672-0.858-0.106-0.061-0.076-0.074-0.178-0.223-0.047-0.070-0.1-0.176-0.157-0.271-0.184-0.309-0.706-1.507-0.678-1.804-0.004-0.006-0.011-0.023-0.011-0.019l-0.066-0.227c-0.017-0.093-0.034-0.191-0.049-0.288-0.015-0.095-0.025-0.18-0.038-0.276l-0.030-0.212c-0.106-0.74-0.117-1.789-0.119-2.541 0-0.411 0.025-0.922-0.008-1.318v-4.69c-0.040-0.568-0.002-1.289 0-1.873 0.002-0.617 0-1.238 0.002-1.854 0.002-1.244-0.002-2.488 0.002-3.732 0.011-2.622 0.021-4.402 1.132-6.275 0.456-0.767 1.138-1.452 1.801-1.933 1.81-1.31 3.838-1.39 6.068-1.39h11.194c1.562 0 3.955-0.053 5.474 0.129 1.479 0.178 2.906 0.733 3.917 1.674 0.176 0.165 0.339 0.295 0.49 0.466 0.61 0.704 1.104 1.399 1.414 2.323 0.064 0.191 0.153 0.449 0.216 0.712 0.121 0.509 0.201 1.058 0.244 1.6 0.040 0.504 0.066 3.202 0.032 3.675z"></path>
</symbol>
<symbol id="icon-vk" viewBox="0 0 53 32">
<title>vk</title>
<path d="M17.667 3.555c3.894 0 3.667 0.047 3.667 4.442 0 2.445-0.191 6.121-1.108 7.561-1.302 2.044-5.281-5.155-5.956-6.274l-3.314-5.352c-0.442-0.663-1.349-2.156-2.289-2.156h-6.557c-1.982 0.003-2.106 0.739-2.112 1.452v0.215c0 0.698 2.356 5.782 2.999 7.225 1.255 2.822 3.169 6.242 5.049 8.728 0.99 1.308 2.728 3.561 3.814 4.633 1.152 1.14 2.18 2.421 3.473 3.417 2.112 1.626 2.348 2.044 5.258 3.408 2.48 1.163 5.24 1.149 8.074 1.149 0.913 0 1.373-1.158 1.514-2.041 0.183-1.163-0.336-3.611 2.433-4.789 1.535-0.654 2.716 0.189 3.847 1.037l1.938 1.617c0.804 0.622 2.736 2.857 3.729 3.605 0.386 0.289 0.663 0.571 1.32 0.571h6.554c0.813 0 1.782-0.554 2.274-0.948 0.875-0.71 1.060-1.638 1.060-2.719 0-1.096-1.82-3.364-2.692-4.306l-2.943-3.057c-2.686-2.586-4.707-1.758-0.999-6.716 1.847-2.474 6.633-8.763 6.633-11.034 0-0.854-2.527-1.405-3.231-1.549-2.398-0.489-2.969-0.563-5.437-0.563-1.873 0-2.247 0.766-3.479 2.854-0.221 0.374-0.377 0.598-0.61 0.946-0.244 0.365-0.395 0.645-0.642 1.022-2.1 3.199-2.813 5.364-4.377 8.513-0.993 2-2.448 2.212-3.128 0.015-0.309-0.999-0.571-4.262-0.383-5.523 0.133-0.875 0.062-4.513 0.062-5.714 0.003-1.175-0.577-3.222-1.885-3.222h-5.779c-1.7 0-4.289 1.158-5.47 2.197-0.551 0.483-0.954 0.689-1.308 1.358z"></path>
</symbol>
</defs>
</svg>
